<svg class="animated" id="freepik_stories-active-elderly-people" xmlns="http://www.w3.org/2000/svg" viewBox="0 0 500 500" version="1.1" xmlns:xlink="http://www.w3.org/1999/xlink" xmlns:svgjs="http://svgjs.com/svgjs"><style>svg#freepik_stories-active-elderly-people:not(.animated) .animable {opacity: 0;}svg#freepik_stories-active-elderly-people.animated #freepik--Plants--inject-41 {animation: 1s 1 forwards cubic-bezier(.36,-0.01,.5,1.38) lightSpeedRight;animation-delay: 0s;}svg#freepik_stories-active-elderly-people.animated #freepik--Floor--inject-41 {animation: 1s 1 forwards cubic-bezier(.36,-0.01,.5,1.38) slideRight;animation-delay: 0s;}svg#freepik_stories-active-elderly-people.animated #freepik--Tree--inject-41 {animation: 1s 1 forwards cubic-bezier(.36,-0.01,.5,1.38) slideRight;animation-delay: 0s;}svg#freepik_stories-active-elderly-people.animated #freepik--Light--inject-41 {animation: 1s 1 forwards cubic-bezier(.36,-0.01,.5,1.38) slideLeft;animation-delay: 0s;}svg#freepik_stories-active-elderly-people.animated #freepik--Clouds--inject-41 {animation: 1s 1 forwards cubic-bezier(.36,-0.01,.5,1.38) lightSpeedRight;animation-delay: 0s;}svg#freepik_stories-active-elderly-people.animated #freepik--Shadows--inject-41 {animation: 1s 1 forwards cubic-bezier(.36,-0.01,.5,1.38) slideLeft;animation-delay: 0s;}svg#freepik_stories-active-elderly-people.animated #freepik--character-3--inject-41 {animation: 1s 1 forwards cubic-bezier(.36,-0.01,.5,1.38) slideLeft;animation-delay: 0s;}svg#freepik_stories-active-elderly-people.animated #freepik--character-2--inject-41 {animation: 1s 1 forwards cubic-bezier(.36,-0.01,.5,1.38) slideDown;animation-delay: 0s;}svg#freepik_stories-active-elderly-people.animated #freepik--character-1--inject-41 {animation: 1s 1 forwards cubic-bezier(.36,-0.01,.5,1.38) slideLeft;animation-delay: 0s;}            @keyframes lightSpeedRight {              from {                transform: translate3d(50%, 0, 0) skewX(-20deg);                opacity: 0;              }              60% {                transform: skewX(10deg);                opacity: 1;              }              80% {                transform: skewX(-2deg);              }              to {                opacity: 1;                transform: translate3d(0, 0, 0);              }            }                    @keyframes slideRight {                0% {                    opacity: 0;                    transform: translateX(30px);                }                100% {                    opacity: 1;                    transform: translateX(0);                }            }                    @keyframes slideLeft {                0% {                    opacity: 0;                    transform: translateX(-30px);                }                100% {                    opacity: 1;                    transform: translateX(0);                }            }                    @keyframes slideDown {                0% {                    opacity: 0;                    transform: translateY(-30px);                }                100% {                    opacity: 1;                    transform: translateY(0);                }            }        </style><g id="freepik--Plants--inject-41" class="animable" style="transform-origin: 267.272px 262.226px;"><g id="freepik--plants--inject-41" class="animable" style="transform-origin: 467.427px 273.274px;"><path d="M475.68,253.61c-3.09,3.94-7.66,9.25-11.75,15.94a59.73,59.73,0,0,0-9.11,26.35l-4.31-2.49-.95-.55L448,292h0c-.37-5.39-.9-15.25.56-22.57,2.58-12.88,7.82-21.82,16-25.79S482.64,244.72,475.68,253.61Z" style="fill: rgb(240, 240, 240); transform-origin: 462.814px 269.084px;" id="elgwk5sdexcua" class="animable"></path><path d="M470.23,246.93c-9.08,6.2-16.91,17.35-19.14,38-.29,2.68-.49,5.51-.58,8.51l-.95-.55c.08-2.46.24-4.8.46-7h0c2.12-21.64,10.29-33.3,19.65-39.69a.49.49,0,0,1,.55.8Z" style="fill: rgb(255, 255, 255); transform-origin: 459.97px 269.794px;" id="elkdzysbkfdyq" class="animable"></path><path d="M487.26,270.87c-.14,1.55-1.37,2.76-2.56,3.78s-2.46,2.12-2.77,3.65c-.61,3.08,3.08,5.87,2.33,8.92a4.84,4.84,0,0,1-2.53,2.91,31,31,0,0,1-3,1.33,14,14,0,0,1-1.51.39,7.11,7.11,0,0,0-4.11,1.91c-1.65,1.85-1.4,4.65-2,7.07a7,7,0,0,1-1.81,3.45L458,297.73l-.66-.38-2.52-1.45-4.31-2.49-.95-.55L448,292a8.7,8.7,0,0,1,1.7-5.72,4.23,4.23,0,0,1,.34-.4h0a6.6,6.6,0,0,1,1.06-.92c1.85-1.33,4.25-2,5.59-3.83,1.53-2.17.58-5.24,1.51-7.72s3.37-3.35,5.74-3.8l.14,0c2.48-.47,5,.5,7.33-.39s4.51-2.32,6.94-3a8.14,8.14,0,0,1,7.06,1.08A4.33,4.33,0,0,1,487.26,270.87Z" style="fill: rgb(224, 224, 224); transform-origin: 467.622px 285.065px;" id="eladqr1bm4fa" class="animable"></path><path d="M482,269.66c-3.16.75-12.3,4.82-18.38,13.13a19.39,19.39,0,0,1,15.44,1.11.35.35,0,0,1,.11.49.33.33,0,0,1-.28.16.35.35,0,0,1-.2-.05,18.69,18.69,0,0,0-15.77-.72,29.06,29.06,0,0,0-4.92,14l-.66-.38a29.66,29.66,0,0,1,5-14,.4.4,0,0,1,.1-.15c6.2-9.05,16-13.45,19.38-14.24a.34.34,0,0,1,.42.26A.35.35,0,0,1,482,269.66Z" style="fill: rgb(255, 255, 255); transform-origin: 469.792px 283.389px;" id="elruzbb5w58x" class="animable"></path></g><g id="freepik--plants--inject-41" class="animable" style="transform-origin: 64.9825px 245.721px;"><path d="M82.68,264.85l-3.13,1.8-.76.44-1,.6L75,269.27l-.63.36c-.61-3.08-2.41-7-4.78-11l0,0a140,140,0,0,0-10.1-14.71c-2.68-3.46-5.18-6.42-7-8.37-6.12-6.67-5.18-15.16,1.23-15.37,9.67-.32,19.74,9.56,24.28,20.41C83.07,252.57,82.48,256.83,82.68,264.85Z" style="fill: rgb(224, 224, 224); transform-origin: 65.5256px 244.901px;" id="elpqiod2pjsio" class="animable"></path><path d="M79.55,266.65l-.76.44c-2.7-20.66-15.27-37.15-25.33-42a.4.4,0,0,1-.19-.54.41.41,0,0,1,.55-.2C64,229.25,76.72,245.85,79.55,266.65Z" style="fill: rgb(255, 255, 255); transform-origin: 66.3893px 245.7px;" id="eluvuukdt5l2" class="animable"></path><path d="M77.75,267.69,75,269.27l-.63.36-.1.06-2.74,1.58c-1.09-2.22-3-4.69-7.24-8.34-6.37-5.46-14.82-8.55-16.44-12.45-1.94-4.68,1.19-8.56,8.24-7.45a21.14,21.14,0,0,1,3.37.82C66.74,246.26,74.81,253.11,77.75,267.69Z" style="fill: rgb(240, 240, 240); transform-origin: 62.5175px 257.054px;" id="el6jnaax5mbcl" class="animable"></path><path d="M75,269.27l-.63.36-.1.06c-4.8-14.41-15.39-20.56-20.67-21.82a.41.41,0,0,1-.3-.5.4.4,0,0,1,.49-.3c4.13,1,10.6,4.39,15.77,11.49l0,0A39.18,39.18,0,0,1,75,269.27Z" style="fill: rgb(255, 255, 255); transform-origin: 64.1436px 258.374px;" id="elc13a6qlc4t4" class="animable"></path></g></g><g id="freepik--Floor--inject-41" class="animable" style="transform-origin: 250.003px 356.83px;"><g id="freepik--floor--inject-41" class="animable" style="transform-origin: 250.003px 356.83px;"><ellipse id="freepik--floor--inject-41" cx="250" cy="356.83" rx="243.71" ry="126.31" style="fill: #29EEC7; transform-origin: 250px 356.83px;" class="animable"></ellipse><g id="freepik--floor--inject-41"><ellipse cx="250" cy="356.83" rx="243.71" ry="126.31" style="fill: rgb(255, 255, 255); opacity: 0.9; transform-origin: 250px 356.83px;" class="animable" id="elq2u7bdzyy5j"></ellipse></g><path d="M66.78,273.55,390.09,460.21a275.66,275.66,0,0,0,32.24-14.06c95.18-49.33,95.18-129.3,0-178.63s-249.49-49.33-344.66,0C73.88,269.48,70.27,271.49,66.78,273.55Z" style="fill: #29EEC7; transform-origin: 280.247px 345.366px;" id="eliocdl0qblx" class="animable"></path><g id="elw0txrlf7dih"><path d="M66.78,273.55,390.09,460.21a275.66,275.66,0,0,0,32.24-14.06c95.18-49.33,95.18-129.3,0-178.63s-249.49-49.33-344.66,0C73.88,269.48,70.27,271.49,66.78,273.55Z" style="fill: rgb(255, 255, 255); opacity: 0.4; transform-origin: 280.247px 345.366px;" class="animable" id="el3idanqcfqox"></path></g><polygon points="22.52 360.56 50.95 376.98 42.83 381.67 14.39 365.25 22.52 360.56" style="fill: rgb(255, 255, 255); transform-origin: 32.67px 371.115px;" id="elta9dzi0on9" class="animable"></polygon><polygon points="75.32 391.05 103.76 407.46 95.63 412.15 67.2 395.74 75.32 391.05" style="fill: rgb(255, 255, 255); transform-origin: 85.48px 401.6px;" id="elcmkrr1fqfcv" class="animable"></polygon><polygon points="128.13 421.54 156.56 437.95 148.44 442.64 120 426.22 128.13 421.54" style="fill: rgb(255, 255, 255); transform-origin: 138.28px 432.09px;" id="ela1ndleklir6" class="animable"></polygon><polygon points="180.93 452.02 209.37 468.44 201.24 473.13 172.81 456.71 180.93 452.02" style="fill: rgb(255, 255, 255); transform-origin: 191.09px 462.575px;" id="elora9r4j25jj" class="animable"></polygon><g id="freepik--Grass--inject-41" class="animable" style="transform-origin: 386.41px 445.785px;"><path d="M387.1,458.49l-1.7-1h0l-1.93-1.12c0-.25,0-.5,0-.76a0,0,0,0,1,0,0,30.4,30.4,0,0,0-.9-8.1s0,0,0,0c-.26-1.09-.58-2.19-.95-3.27-.09-.28-.19-.55-.29-.81-.19-.54-.4-1.07-.62-1.59a36.11,36.11,0,0,0-1.88-3.79c-.22-.39-.46-.77-.69-1.14a26.65,26.65,0,0,0-1.58-2.22c-.32-.42-.66-.81-1-1.2a19.8,19.8,0,0,0-2.17-2c5.64,2.48,9.94,8.82,12.13,15a29.94,29.94,0,0,1,1.39,5.5h0A24.42,24.42,0,0,1,387.1,458.49Z" style="fill: #29EEC7; transform-origin: 380.311px 444.99px;" id="eltjyputiftoj" class="animable"></path><g id="elc0tlpmmlol6"><path d="M383.45,456.38l1.93,1.12c1.46-11.07-7.75-23.77-11.39-25.8-.2-.09-.38-.2-.59-.29a19.8,19.8,0,0,1,2.17,2c.34.39.68.78,1,1.2a26.65,26.65,0,0,1,1.58,2.22c.23.37.47.75.69,1.14a36.11,36.11,0,0,1,1.88,3.79c.22.52.43,1.05.62,1.59.1.26.2.53.29.81.37,1.08.69,2.18.95,3.27,0,0,0,0,0,0a30.4,30.4,0,0,1,.9,8.1,0,0,0,0,0,0,0c0,.26,0,.51-.05.76Z" style="opacity: 0.15; transform-origin: 379.468px 444.455px;" class="animable" id="elmez0to9a54p"></path></g><path d="M399.43,438.31c-8.95,8.19-9.41,20-9.43,21.85l-2.56-1.47-.34-.2-1.7-1a29.63,29.63,0,0,1,1.52-5.58h0C389.55,444.94,394.54,439.45,399.43,438.31Z" style="fill: #29EEC7; transform-origin: 392.415px 449.235px;" id="el60xrn1gnlxv" class="animable"></path><g id="elhh4ft6bvf4d"><path d="M399.43,438.31c-5,1.71-11.31,10.95-12,20.38l-.34-.2-1.7-1a29.63,29.63,0,0,1,1.52-5.58h0C389.55,444.94,394.54,439.45,399.43,438.31Z" style="opacity: 0.15; transform-origin: 392.41px 448.5px;" class="animable" id="el3grhaloganq"></path></g></g></g></g><g id="freepik--Tree--inject-41" class="animable" style="transform-origin: 209.043px 127.813px;"><g id="freepik--tree--inject-41" class="animable" style="transform-origin: 209.043px 127.813px;"><g id="freepik--tree--inject-41" class="animable" style="transform-origin: 209.043px 127.813px;"><path d="M200.45,132.1a8,8,0,0,1,4.33.78c2.59,1.25,4.74,3.25,7.05,5s4.93,3.28,7.82,3.38,6-1.7,6.52-4.54a4.19,4.19,0,0,1,.37-1.45,2.1,2.1,0,0,1,2.46-.63,12.47,12.47,0,0,1,2.37,1.37c2.92,1.72,6.58,1.33,9.93.84,2.79-.4,6.31-1.64,6.3-4.46,0-1.83-1.61-3.19-2.87-4.53s-2.3-3.47-1.14-4.9a3.33,3.33,0,0,1,1.61-1c3.49-1.14,7.76.38,10.71-1.81a6.16,6.16,0,0,0,1.54-7.38,9.36,9.36,0,0,0-6.28-4.78c-2.34-.6-5.32-.88-6.19-3.13-.76-2,.77-4.11,2.5-5.32s3.83-2.07,5-3.81a6,6,0,0,0,.16-6.24,7.59,7.59,0,0,0-5.25-3.61,11.29,11.29,0,0,1-3.19-.7c-1-.49-1.71-1.73-1.18-2.68.31-.58,1-.88,1.36-1.41.74-1,.1-2.58-.94-3.32a13.21,13.21,0,0,0-3.56-1.37c-2.53-.84-5-3.29-4.23-5.85s4.41-3.53,5.49-6.08c.95-2.27-.56-4.9-2.59-6.29s-4.5-1.94-6.72-3-4.37-2.91-4.55-5.36,1.7-4.62,3.24-6.61,2.83-4.79,1.49-6.92-4.15-2.16-6.45-2.9a10.43,10.43,0,0,1-6.36-5.73c-.61-1.42-.91-3-1.64-4.32-2.29-4.23-8-6.08-12.49-5.56-2.33.28-3.11,1.17-4.24,2.88-.65,1-1.33,1.53-1.56,2.93-.33,2,.74,4.63-1.18,6.19-2.92,2.36-7.4-.82-7.24,4.47a22.62,22.62,0,0,0,1,6.59c.8,2.23,2.4,3.19,1.07,5.68-1.72,3.23-2.84,3.21-6.28,3.2-2.5,0-4.58-.14-6.41,1.75-3.21,3.32-1.3,6.33,1.56,8.9,3.24,2.91,1.52,4.18,1.1,8-.21,1.81.21,2.37-1.42,3.58-3.07,2.27-4.78,1.51-3.92,6,.79,4.08-.43,2.68-4,4.2-3.13,1.35-5.2,4.72-7.74,6.83-1.63,1.35-4.11,2.39-4.27,4.77-.29,4.54,5.36,3.55,8.05,4.63,4.39,1.78,3.08,7.53-.35,9.69-3.63,2.28-8.92,3.12-9.21,8.33-.22,4,2,4.87,5.14,6.21,2.47,1.07,2.16,1.38,2.16,4.33,0,6,2,7.64,7.86,6.67,1.61-.27,4.06-1,5.67-.47,2.24.68,1.48,1.23,1.54,3.11.17,4.8,5.76,3.45,8.13,1.39C193.32,135.21,196.75,132.46,200.45,132.1Z" style="fill: #29EEC7; transform-origin: 209.043px 79.4792px;" id="elwoxyx5np9y" class="animable"></path><g id="el1dye57a4wex"><path d="M200.45,132.1a8,8,0,0,1,4.33.78c2.59,1.25,4.74,3.25,7.05,5s4.93,3.28,7.82,3.38,6-1.7,6.52-4.54a4.19,4.19,0,0,1,.37-1.45,2.1,2.1,0,0,1,2.46-.63,12.47,12.47,0,0,1,2.37,1.37c2.92,1.72,6.58,1.33,9.93.84,2.79-.4,6.31-1.64,6.3-4.46,0-1.83-1.61-3.19-2.87-4.53s-2.3-3.47-1.14-4.9a3.33,3.33,0,0,1,1.61-1c3.49-1.14,7.76.38,10.71-1.81a6.16,6.16,0,0,0,1.54-7.38,9.36,9.36,0,0,0-6.28-4.78c-2.34-.6-5.32-.88-6.19-3.13-.76-2,.77-4.11,2.5-5.32s3.83-2.07,5-3.81a6,6,0,0,0,.16-6.24,7.59,7.59,0,0,0-5.25-3.61,11.29,11.29,0,0,1-3.19-.7c-1-.49-1.71-1.73-1.18-2.68.31-.58,1-.88,1.36-1.41.74-1,.1-2.58-.94-3.32a13.21,13.21,0,0,0-3.56-1.37c-2.53-.84-5-3.29-4.23-5.85s4.41-3.53,5.49-6.08c.95-2.27-.56-4.9-2.59-6.29s-4.5-1.94-6.72-3-4.37-2.91-4.55-5.36,1.7-4.62,3.24-6.61,2.83-4.79,1.49-6.92-4.15-2.16-6.45-2.9a10.43,10.43,0,0,1-6.36-5.73c-.61-1.42-.91-3-1.64-4.32-2.29-4.23-8-6.08-12.49-5.56-2.33.28-3.11,1.17-4.24,2.88-.65,1-1.33,1.53-1.56,2.93-.33,2,.74,4.63-1.18,6.19-2.92,2.36-7.4-.82-7.24,4.47a22.62,22.62,0,0,0,1,6.59c.8,2.23,2.4,3.19,1.07,5.68-1.72,3.23-2.84,3.21-6.28,3.2-2.5,0-4.58-.14-6.41,1.75-3.21,3.32-1.3,6.33,1.56,8.9,3.24,2.91,1.52,4.18,1.1,8-.21,1.81.21,2.37-1.42,3.58-3.07,2.27-4.78,1.51-3.92,6,.79,4.08-.43,2.68-4,4.2-3.13,1.35-5.2,4.72-7.74,6.83-1.63,1.35-4.11,2.39-4.27,4.77-.29,4.54,5.36,3.55,8.05,4.63,4.39,1.78,3.08,7.53-.35,9.69-3.63,2.28-8.92,3.12-9.21,8.33-.22,4,2,4.87,5.14,6.21,2.47,1.07,2.16,1.38,2.16,4.33,0,6,2,7.64,7.86,6.67,1.61-.27,4.06-1,5.67-.47,2.24.68,1.48,1.23,1.54,3.11.17,4.8,5.76,3.45,8.13,1.39C193.32,135.21,196.75,132.46,200.45,132.1Z" style="fill: rgb(255, 255, 255); opacity: 0.1; transform-origin: 209.043px 79.4792px;" class="animable" id="elyrbjkulxhrm"></path></g><g id="elr08cd55kkh"><path d="M245.2,122c2.68-.87,5.82-.19,8.46-.81a31.53,31.53,0,0,0-4.74-.75,13.47,13.47,0,0,0-6.71,1.46,6.31,6.31,0,0,0-2.38,1.59,3,3,0,0,0,.09,3c.45,1,1.14,2.68.06,3.55s-3.27.65-4.59.18a42.24,42.24,0,0,1-4.82-2.25,21.9,21.9,0,0,0-4.76-2c-1.19-.29-3.28-.45-4,.84a5.44,5.44,0,0,0-.81,2.59,5.5,5.5,0,0,1,0,2.06,4,4,0,0,1-2.85,3c-1.84.41-3.69-.82-4.83-2.32s-1.84-3.31-3-4.81a10.16,10.16,0,0,0-13.51-2c-1.72,1.24-3.87,3.13-5.58,1.89s-.72-5-2.76-6c-1.35-.67-3.25.39-4.38-.6a3.12,3.12,0,0,1-.77-1.66c-.81-3.4-1.51-7.33.63-10.09,1.9-2.46,5.93-4,5.5-7-.37-2.63-3.72-3.42-6.35-3.73s-6-1.55-5.85-4.2,3.66-3.86,4.18-6.42c.22-1.09-.15-2.3.35-3.3.75-1.5,2.9-1.56,4.15-2.67,2.26-2,.51-5.73,1.15-8.68.45-2.08,2.14-3.71,2.7-5.77,1.11-4.11-2.62-8-6.54-9.7a23.76,23.76,0,0,1-4.46-2.06l-.14-.11c.1,1.86,1.48,3.59,3.22,5.15,3.24,2.91,1.52,4.18,1.1,8-.21,1.81.21,2.37-1.42,3.58-3.07,2.27-4.78,1.51-3.92,6,.79,4.08-.43,2.68-4,4.2-3.13,1.35-5.2,4.72-7.74,6.83-1.63,1.35-4.11,2.39-4.27,4.77-.29,4.54,5.36,3.55,8.05,4.63,4.39,1.78,3.08,7.53-.35,9.69-3.63,2.28-8.92,3.12-9.21,8.33-.22,4,2,4.87,5.14,6.21,2.47,1.07,2.16,1.38,2.16,4.33,0,6,2,7.63,7.86,6.67,1.61-.27,4.06-1,5.67-.47,2.24.68,1.48,1.23,1.54,3.11.17,4.8,5.76,3.45,8.13,1.39,2.73-2.37,6.16-5.12,9.86-5.48a8,8,0,0,1,4.33.78c2.59,1.25,4.74,3.25,7.05,5s4.93,3.28,7.82,3.38,6-1.7,6.52-4.54a4.19,4.19,0,0,1,.37-1.45,2.1,2.1,0,0,1,2.46-.63,12.47,12.47,0,0,1,2.37,1.37c2.92,1.72,6.58,1.33,9.93.84,2.79-.4,6.31-1.64,6.3-4.46,0-1.83-1.61-3.19-2.87-4.53s-2.3-3.47-1.14-4.9A3.33,3.33,0,0,1,245.2,122Z" style="opacity: 0.15; transform-origin: 206.872px 98.282px;" class="animable" id="eldopkpxokof7"></path></g><path d="M188.88,76.64,207,112.48V96l1.83-42.85L211.47,96v11.09l19.86-34.73L211.47,115V236.63a1.13,1.13,0,0,1-.66.92,3.52,3.52,0,0,1-3.19,0,1.13,1.13,0,0,1-.66-.92v-115Z" style="fill: rgb(69, 90, 100); transform-origin: 210.105px 145.541px;" id="elj6libf7oal" class="animable"></path></g></g></g><g id="freepik--Light--inject-41" class="animable" style="transform-origin: 67.8px 163.131px;"><g id="freepik--light--inject-41" class="animable" style="transform-origin: 67.8px 163.131px;"><path d="M84.9,52.15a3.14,3.14,0,0,0-2.86,0,1,1,0,0,0-.6.83V273.29a1,1,0,0,0,.6.83,3.2,3.2,0,0,0,2.86,0,1,1,0,0,0,.59-.83V53A1,1,0,0,0,84.9,52.15Z" style="fill: rgb(69, 90, 100); transform-origin: 83.465px 163.131px;" id="eljsjgp0cqpci" class="animable"></path><path d="M76.65,97.49c0-6.35-9.5-15.86-9.5-15.86H59.61s-9.5,9.51-9.5,15.86h0c0,2,1.3,3.92,3.89,5.41,5.18,3,13.58,3,18.76,0,2.59-1.49,3.89-3.45,3.89-5.41Z" style="fill: #29EEC7; transform-origin: 63.38px 93.39px;" id="el0xllikm0cxlp" class="animable"></path><g id="elu13ykar3j"><path d="M76.65,97.49c0-6.35-9.5-15.86-9.5-15.86H59.61s-9.5,9.51-9.5,15.86h0c0,2,1.3,3.92,3.89,5.41,5.18,3,13.58,3,18.76,0,2.59-1.49,3.89-3.45,3.89-5.41Z" style="fill: rgb(255, 255, 255); opacity: 0.3; transform-origin: 63.38px 93.39px;" class="animable" id="eleujok8foi87"></path></g><path d="M60.13,81.27a7.22,7.22,0,0,1,6.5,0c1.8,1,1.8,2.72,0,3.75a7.16,7.16,0,0,1-6.5,0C58.34,84,58.34,82.31,60.13,81.27Z" style="fill: #29EEC7; transform-origin: 63.3838px 83.1486px;" id="elqgirtbhajwj" class="animable"></path><g id="ellcqfogq6729"><path d="M60.13,81.27a7.22,7.22,0,0,1,6.5,0c1.8,1,1.8,2.72,0,3.75a7.16,7.16,0,0,1-6.5,0C58.34,84,58.34,82.31,60.13,81.27Z" style="fill: rgb(255, 255, 255); opacity: 0.2; transform-origin: 63.3838px 83.1486px;" class="animable" id="elflpyypbwpju"></path></g><g id="elhm3jqwypjz"><path d="M60.13,81.27a7.22,7.22,0,0,1,6.5,0c1.8,1,1.8,2.72,0,3.75a7.16,7.16,0,0,1-6.5,0C58.34,84,58.34,82.31,60.13,81.27Z" style="opacity: 0.2; transform-origin: 63.3838px 83.1486px;" class="animable" id="elvl8ybvfoz4o"></path></g><path d="M82.63,59.41a.54.54,0,0,0-.63,0h0L65.62,68.79a6.9,6.9,0,0,0-3.42,5.94v8.42h0a.59.59,0,0,0,.35.48,1.89,1.89,0,0,0,1.67,0,.58.58,0,0,0,.34-.48V74.73a4.53,4.53,0,0,1,2.24-3.89L83.18,61.4h0a.55.55,0,0,0,.29-.55A1.83,1.83,0,0,0,82.63,59.41Z" style="fill: rgb(69, 90, 100); transform-origin: 72.8368px 71.5665px;" id="elmw88gds7v1e" class="animable"></path><path d="M85.49,53c0,.64-.9,1.15-2,1.15s-2-.51-2-1.15.91-1.15,2-1.15S85.49,52.32,85.49,53Z" style="fill: rgb(55, 71, 79); transform-origin: 83.49px 53px;" id="eld9tg53l5hzc" class="animable"></path></g></g><g id="freepik--Clouds--inject-41" class="animable" style="transform-origin: 403.18px 72.4216px;"><g id="freepik--clouds--inject-41" class="animable" style="transform-origin: 403.18px 72.4216px;"><path d="M402.6,50.2l7.87,4.54a9.2,9.2,0,0,1-.06-1V51.42c0-4.06,2.85-5.7,6.36-3.67a12.33,12.33,0,0,1,3.79,3.64c.58-5.1,4.58-7,9.44-4.19,5.26,3,9.52,10.41,9.52,16.49V67.1a9.07,9.07,0,0,1-.8,4l6.54,3.77a7.82,7.82,0,0,1,3.53,6.12c0,2.25-1.58,3.16-3.53,2L402.6,58.35a7.8,7.8,0,0,1-3.53-6.11C399.07,50,400.65,49.07,402.6,50.2Z" style="fill: rgb(240, 240, 240); transform-origin: 423.93px 64.6972px;" id="eldt9ie08nxqu" class="animable"></path><path d="M360.23,73.85l5.94,3.43c0-.26-.05-.53-.05-.78V74.78c0-3.07,2.15-4.31,4.81-2.78a9.35,9.35,0,0,1,2.86,2.76c.43-3.86,3.45-5.29,7.12-3.17A15.87,15.87,0,0,1,388.1,84v2.58a6.78,6.78,0,0,1-.61,3l4.93,2.85a5.86,5.86,0,0,1,2.67,4.61c0,1.7-1.19,2.39-2.67,1.54L360.23,80a5.86,5.86,0,0,1-2.66-4.61C357.57,73.69,358.76,73,360.23,73.85Z" style="fill: rgb(240, 240, 240); transform-origin: 376.33px 84.7761px;" id="elwezg6om7ir" class="animable"></path></g></g><g id="freepik--Shadows--inject-41" class="animable" style="transform-origin: 267.357px 366.997px;"><g id="freepik--Shadow--inject-41" class="animable" style="transform-origin: 150.198px 392.677px;"><g id="eln59jmrmshqc"><path d="M235.2,432.73l-58.31-33.66c4.32-7.63,1.23-16.35-9.27-22.42S142,368.81,128.8,371.3L80.73,343.55c-4.35-2.51-11.2-2.64-15.29-.28s-5.29,6.15-.71,10q20.13,14.85,42.11,28.82c-7.48,8.3-5.19,18.77,6.87,25.73s29.73,8.25,44,4.12q29.13,15.77,61.17,30.33c6.24,2.44,12.71,1.69,16.79-.67S239.55,435.25,235.2,432.73Z" style="fill: #29EEC7; opacity: 0.1; transform-origin: 150.198px 392.677px;" class="animable" id="el2mhdmpfpm0x"></path></g><g id="el0zmnc0xip6b"><path d="M235.2,432.73l-58.31-33.66c4.32-7.63,1.23-16.35-9.27-22.42S142,368.81,128.8,371.3L80.73,343.55c-4.35-2.51-11.2-2.64-15.29-.28s-5.29,6.15-.71,10q20.13,14.85,42.11,28.82c-7.48,8.3-5.19,18.77,6.87,25.73s29.73,8.25,44,4.12q29.13,15.77,61.17,30.33c6.24,2.44,12.71,1.69,16.79-.67S239.55,435.25,235.2,432.73Z" style="opacity: 0.05; transform-origin: 150.198px 392.677px;" class="animable" id="el00vko5v23k9k"></path></g></g><g id="freepik--shadow--inject-41"><ellipse cx="295.65" cy="313.11" rx="39.65" ry="22.89" style="opacity: 0.1; transform-origin: 295.65px 313.11px;" class="animable" id="el6txq4aszxte"></ellipse></g><g id="freepik--shadow--inject-41"><ellipse cx="420.43" cy="364.48" rx="52.49" ry="30.3" style="opacity: 0.1; transform-origin: 420.43px 364.48px;" class="animable" id="el1xooic7imm8"></ellipse></g></g><g id="freepik--character-3--inject-41" class="animable" style="transform-origin: 406.213px 257.15px;"><g id="freepik--Character--inject-41" class="animable" style="transform-origin: 406.213px 257.15px;"><path d="M375.39,180.71a17.47,17.47,0,0,1,.16-2.7c.49-4.33-1-8.54-2.66-12.45l-.88-2a7,7,0,0,1-.41-1c-.09-.32-.19-.58-.61-.58a1.22,1.22,0,0,0-.79.37,3.6,3.6,0,0,0-1,2.71,18.29,18.29,0,0,0,.49,2.93c.15.74-.63.37-1,.14-1.68-1.13-3-4-3.86-5.85a26.67,26.67,0,0,0-1.61-3.57,4.08,4.08,0,0,0-1.82-1.57c-.51-.2-1.05-.2-1.23.46a2.75,2.75,0,0,0,.08,1.27,3,3,0,0,1-.21,2.42,6.65,6.65,0,0,0-.95,1.48,20.53,20.53,0,0,0-.22,2.23,18.22,18.22,0,0,1-.83,1.72,5.55,5.55,0,0,0,.13,2.29,17.83,17.83,0,0,0,1.4,4.52,34.25,34.25,0,0,0,3.73,6.13,9.38,9.38,0,0,1,1.9,3.49,20.73,20.73,0,0,1,.32,4c0,1.68,0,3.36,0,5,.16,18.16,1.49,22.05,3.33,24.44,1.3,1.68,4.38,4.48,10.85,0,7.18-5,22.32-22.28,22.32-22.28l.22-19.08s-4.12-.23-8.6,4.74c-4.71,5.25-15.63,18.27-15.63,18.27S375.67,183.12,375.39,180.71Z" style="fill: rgb(255, 189, 167); transform-origin: 380.108px 188.016px;" id="el8kgjlwwsk16" class="animable"></path><path d="M404.22,173.22c-6.47,1.1-8.3,3.19-12.12,7.72s-14,17.32-14,17.32l-.64-4s-.59,2.78-5.75,6c-3.24,2-7.76,1.51-7.76,1.51s.28,8.23,2.19,13.77c1.75,5.07,7.12,6.37,13,2.47s21.25-18.73,21.25-18.73Z" style="fill: rgb(69, 90, 100); transform-origin: 384.085px 196.753px;" id="elcxqmuyw40vb" class="animable"></path><path d="M378.08,198.26a34.23,34.23,0,0,1,.82,10.07s2.23-6.31.6-11.76Z" style="fill: rgb(55, 71, 79); transform-origin: 379.088px 202.45px;" id="eltfa3itfa1ud" class="animable"></path><path d="M369.46,171a13.15,13.15,0,0,0,.26,7.26,7.69,7.69,0,0,1-1.35-3.7C368.33,172.48,368.81,171.66,369.46,171Z" style="fill: rgb(240, 153, 122); transform-origin: 369.044px 174.63px;" id="elfb2bhi7f9xi" class="animable"></path><g id="freepik--Bottom--inject-41" class="animable" style="transform-origin: 416.481px 299.237px;"><path d="M438.21,371.11c.09,2,.89,6.19,4,8.22a7.08,7.08,0,0,0,7.41.19c1.28-.72,3.93-2.82,3.81-9.38Z" style="fill: rgb(69, 90, 100); transform-origin: 445.822px 375.307px;" id="el68gstmstcf" class="animable"></path><path d="M438,366.67a19.08,19.08,0,0,0,1.29,8.15c.94,2.19,3.46,5,6.09,5s5.54-.83,7.21-5c1.4-3.5.71-7.16.25-9.56Z" style="fill: rgb(235, 235, 235); transform-origin: 445.693px 372.54px;" id="elj6w1nfe0suq" class="animable"></path><path d="M379.14,365.78c-.18.82-.14,1.39,2.83,2.66s7.56,1.54,11.49.87,7.52-3.84,9.3-6.12,5.24-4.3,7.5-5.32,2.74-1.47,2.62-2.19-.62-2.65-.62-2.65Z" style="fill: rgb(235, 235, 235); transform-origin: 395.988px 361.348px;" id="elw4c5aup75hg" class="animable"></path><path d="M412.73,350c-.38-2.41-1.35-3.55-1.23-5.49s-.95-1.67-.95-1.67l-.18,1.08c-.15.72-.6,1-1,1.51-.86,1.2-.91,2.08-2,2.38s-1.15-1.54-2.34-1.62a1.89,1.89,0,0,0-1.23.53,3.1,3.1,0,0,0,.18-1.48c-.26-1.17-3.15-1.57-5.19-2.07s-1.21,1-2.07,2.92-5.58,8.14-7.46,10A59.25,59.25,0,0,1,384,360c-2.58,1.6-3.49,2.07-4.24,2.49s-1,2.08-.71,3.1,5.87,3.8,12,2.84,8-3.4,10.35-6.44a16.63,16.63,0,0,1,6.68-5.24,13.9,13.9,0,0,0,4.41-2.63A8.09,8.09,0,0,0,412.73,350Z" style="fill: #29EEC7; transform-origin: 395.912px 355.728px;" id="elld57vlrver" class="animable"></path><g id="elryasofnyddm"><path d="M389.27,356.16c1.88-1.9,6.6-8.13,7.46-10s0-3.43,2.07-2.92,4.93.9,5.19,2.07-.91,3.82-3.36,7a35.92,35.92,0,0,1-7,6.31Z" style="opacity: 0.1; transform-origin: 396.648px 350.881px;" class="animable" id="el84nbrwzcwum"></path></g><path d="M380.1,363.52c1.07.34,2.25.7,2.27,1.11s-.09,2.71.45,3.51a3,3,0,0,0,2.29,1.2,29.67,29.67,0,0,0,8.21-.18,15.2,15.2,0,0,0,7.65-4.27c2.47-2.47,3-3.71,6.13-5.53s4.33-2.06,5.74-3.18a6.3,6.3,0,0,1,.19,1,3.81,3.81,0,0,1-1.46,1,37.72,37.72,0,0,0-5.87,2.94,40.59,40.59,0,0,0-4.43,4.39,15.59,15.59,0,0,1-8,4.28c-3.48.62-8.2.45-11.22-.81s-3.13-1.89-3.37-2.27a6.78,6.78,0,0,1,0-3C378.92,363.2,379.32,363.27,380.1,363.52Z" style="fill: rgb(69, 90, 100); transform-origin: 395.771px 363.159px;" id="elbhq9k6q6d0c" class="animable"></path><path d="M394.63,357.73c-2.11-1.65-4-2.31-4.82-2.15a1.78,1.78,0,0,0-.87.84s1.67,0,4.67,2.17C393.61,358.59,394.52,358.54,394.63,357.73Z" style="fill: rgb(69, 90, 100); transform-origin: 391.785px 357.073px;" id="el3vgk5uxvdrt" class="animable"></path><path d="M391.64,353.4a12.82,12.82,0,0,1,5.83,2.44,1.13,1.13,0,0,0,1-.85s-3-2.51-6.07-2.5C392.36,352.49,391.62,352.82,391.64,353.4Z" style="fill: rgb(69, 90, 100); transform-origin: 395.055px 354.165px;" id="el3uccvtioa8n" class="animable"></path><path d="M394,350.35c1.38-.41,5.12,1.65,6.2,2.77a1,1,0,0,0,1-1s-2.94-2.9-6.34-3C394.8,349.19,393.84,349.55,394,350.35Z" style="fill: rgb(69, 90, 100); transform-origin: 397.591px 351.12px;" id="elqcuzq1q7ia" class="animable"></path><path d="M396,347.44c.68-.08,4.45.28,6.55,2.41a1.18,1.18,0,0,0,.79-1,9.19,9.19,0,0,0-6.69-2.49A1.79,1.79,0,0,0,396,347.44Z" style="fill: rgb(69, 90, 100); transform-origin: 399.67px 348.101px;" id="elnyrwju16ip" class="animable"></path><path d="M448.64,346.16c1.05.08,1.22,4,2,8.89.79,4.65,1.05,4.75,1.82,8.54s1.24,6.2-.42,9.87c-3.05,6.76-9.29,5.29-11.87,1.17s-2.39-7.14-2.06-11.5-.17-6.21-.31-9.64-.53-6.48.4-6.83c.05.3.18.83.31,1.65.16,1.11.07,2,.66,2.07,0,0,0-.84-.08-1.27a1,1,0,0,1,.31-1c.54-.36,2.58-.34,4.38-.48a20.67,20.67,0,0,1,3.79,0,.87.87,0,0,1,.73.92c0,.6.11,1.41.11,1.41.3,0,.34-.37.35-.48,0-.53-.06-.91-.07-1.53C448.72,347.67,448.65,346.44,448.64,346.16Z" style="fill: #29EEC7; transform-origin: 445.38px 362.143px;" id="elr2foiuvl65" class="animable"></path><path d="M442.33,378.7c.68.45,1.84-.32,1.76-1.44s1.07-1,2.34-1.09,2.21-.41,2.34.71.72,1.71,1.6,1.2c0,0-.8,1.69-3.79,2A4.83,4.83,0,0,1,442.33,378.7Z" style="fill: rgb(69, 90, 100); transform-origin: 446.35px 378.103px;" id="els7nbbt18tw" class="animable"></path><g id="elry4xgkbw7w"><path d="M448.34,348.55a.87.87,0,0,0-.73-.92,20.67,20.67,0,0,0-3.79,0c-1.8.14-3.84.12-4.38.48a1,1,0,0,0-.31,1c0,.43.08,1.27.08,1.27.21,2.33,1.92,12.82,2.23,14.55,0,0,3.93-.54,7.92-.69,0-.37-.91-14.28-.91-14.28S448.37,349.15,448.34,348.55Z" style="opacity: 0.1; transform-origin: 444.229px 356.236px;" class="animable" id="eldl7dr1edcs"></path></g><path d="M441.1,365.62a29,29,0,0,1,8.73-.63,2.94,2.94,0,0,0,0-1.61,34.73,34.73,0,0,0-9,.76A2,2,0,0,0,441.1,365.62Z" style="fill: rgb(69, 90, 100); transform-origin: 445.365px 364.482px;" id="el4ufit03z1wg" class="animable"></path><path d="M440.59,361.56a29.56,29.56,0,0,1,9-.7,1.48,1.48,0,0,0,0-1.6,35.8,35.8,0,0,0-9.32.78A1.69,1.69,0,0,0,440.59,361.56Z" style="fill: rgb(69, 90, 100); transform-origin: 445.017px 360.39px;" id="elzik7x0cgqh" class="animable"></path><path d="M440.09,357.51a30,30,0,0,1,9.34-.78,2.58,2.58,0,0,0,0-1.6,37.39,37.39,0,0,0-9.64.81A1.76,1.76,0,0,0,440.09,357.51Z" style="fill: rgb(69, 90, 100); transform-origin: 444.639px 356.3px;" id="elatjvk7so73" class="animable"></path><path d="M438.89,353.28a35.1,35.1,0,0,1,10.34-.68,1.4,1.4,0,0,0,0-1.6,44.23,44.23,0,0,0-10.64.66A1.91,1.91,0,0,0,438.89,353.28Z" style="fill: rgb(69, 90, 100); transform-origin: 444.003px 352.102px;" id="el54vgr2luko4" class="animable"></path><path d="M446.3,243c-1.39-15.07-3.24-17.51-6.12-24.18L396.91,218c-1.38,18.1-4.11,60.09-3.71,80.75,0,10.91,0,52.62,0,52.62a16.16,16.16,0,0,0,9.67,3.89C409.7,355.68,413,353,413,353s3-31.89,3.61-38.52c.84-8.87,1.07-13.48.21-18.95l3.73-31.49s1.37,20,3.66,33.56c2.18,12.87,12,63.66,12,63.66s2.54,1.9,8.36,1.61a18.17,18.17,0,0,0,9.88-3.68s-2-27.65-2.34-36.78c-.51-12.41-3-18.27-3.1-24.81C449,290.74,448.75,269.43,446.3,243Z" style="fill: rgb(55, 71, 79); transform-origin: 423.805px 290.45px;" id="elaunq9lqfpir" class="animable"></path><path d="M420.58,264.07l-2-14.25s-8.15-1.06-13-6.83c0,0,.84,5.83,10.36,8.81L418.26,264l-1.41,31.55Z" style="fill: rgb(38, 50, 56); transform-origin: 413.08px 269.27px;" id="elgx5rn2j32da" class="animable"></path></g><g id="freepik--Top--inject-41" class="animable" style="transform-origin: 420.425px 188.977px;"><path d="M423.69,171.05l11.93,2.52c.39,10.55,6.95,22.49,6.95,22.49s.62,9,.93,15.5,1,17,2.24,25c-5.72,5.18-19,7.88-30.48,7.54L413.21,233l-1.89,10.88c-8.94-.86-16-3.78-16.21-9.06,1.15-16.29-1.9-52.27,9.11-61.61l12.32-2.17Z" style="fill: #29EEC7; transform-origin: 420.425px 207.584px;" id="elpejxxiiemr" class="animable"></path><path d="M407,153.28a59,59,0,0,0,5.78,3.77,41,41,0,0,0,6,2.8c2.19.81,4,.1,6.34.3,0,0,1,2.22,2.35.84a11,11,0,0,0,3-4c1.11-2.62,2-5.6,1.37-11.14a11.8,11.8,0,0,0-3.46-7.38,15.78,15.78,0,0,0-9.45-4.42c-8.14-1.19-14.71,2.52-16.66,6.74-.83,1.8-.23,3.06-.3,5.08a7.7,7.7,0,0,0,.46,3.05,5.11,5.11,0,0,0,1.9,2.21C405.15,151.89,406,152.6,407,153.28Z" style="fill: rgb(255, 189, 167); transform-origin: 416.937px 147.633px;" id="elio6zmdphmh" class="animable"></path><path d="M430.54,157.62c1.77-2.19,2.17-3,1.72-11.29-.05-.78-.29-2.27-.87-2.32,0,.73-.58.87-1.2,1.14-1,.43-2.58-.28-3.07.88a3.65,3.65,0,0,0-3.16.14,3.92,3.92,0,0,0-1.77,3.51c-1,3.14-2.07,6.27-.18,8.44A5.92,5.92,0,0,0,430.54,157.62Z" style="fill: rgb(224, 224, 224); transform-origin: 426.699px 151.854px;" id="elkzq36ygncl" class="animable"></path><path d="M419,138.94c0,2,2.22,6.32,5,8.75a19.49,19.49,0,0,0-.15,6.68,3.48,3.48,0,0,0,.51,1.33,1.58,1.58,0,0,0,1.17.74c.65.05.91-.34,1.11-.85a15.07,15.07,0,0,1,1-1.87,4.19,4.19,0,0,1,.57-.73c1-.9,3.89-2,5.24,1.07s-1.06,6.75-3,8.16a3.41,3.41,0,0,1-4.33,0l.07,11.35c-4,2.27-7.35,2.91-11.58,3.69a4,4,0,0,1-3.25-3.12l-.29-5a29.07,29.07,0,0,1-5.68-.39c-2.09-.4-3.49-1.79-4.36-5a48.58,48.58,0,0,1-.63-18.5c.75-3.76,3.44-7.25,4.57-7.82,0,.82.62,2.88,4.07,3.43C413.31,141.59,415.91,140.22,419,138.94Z" style="fill: rgb(255, 189, 167); transform-origin: 416.82px 157.345px;" id="eldyjqvnbcpcg" class="animable"></path><path d="M414.59,177.26l.57-3.2a26.83,26.83,0,0,0,5.8-.84c3.41-.84,5.19-2.45,5.18-3.79V168.1s.92-.12,1.07,1.33c.21,2.06.31,3.86.31,3.86A16.26,16.26,0,0,1,414.59,177.26Z" style="fill: #29EEC7; transform-origin: 421.055px 172.748px;" id="eltx8qgohfxl" class="animable"></path><g id="elm721mxq4dl"><path d="M414.59,177.26l.57-3.2a26.83,26.83,0,0,0,5.8-.84c3.41-.84,5.19-2.45,5.18-3.79V168.1s.92-.12,1.07,1.33c.21,2.06.31,3.86.31,3.86A16.26,16.26,0,0,1,414.59,177.26Z" style="opacity: 0.2; transform-origin: 421.055px 172.748px;" class="animable" id="elkc5c5qyloj"></path></g><path d="M414.59,177.26l-.75-3.24a4.68,4.68,0,0,1-1.7-.45,2,2,0,0,1-.94-1.91l-.07-1.15s-.57.07-.71,1.18a19,19,0,0,0,.18,3.52A3.74,3.74,0,0,0,414.59,177.26Z" style="fill: #29EEC7; transform-origin: 412.497px 173.911px;" id="elu5e2o636bxd" class="animable"></path><g id="ell9rfb3ojrm"><path d="M414.59,177.26l-.75-3.24a4.68,4.68,0,0,1-1.7-.45,2,2,0,0,1-.94-1.91l-.07-1.15s-.57.07-.71,1.18a19,19,0,0,0,.18,3.52A3.74,3.74,0,0,0,414.59,177.26Z" style="opacity: 0.2; transform-origin: 412.497px 173.911px;" class="animable" id="elwpmxek9kfc"></path></g><path d="M411.05,169.15c3.48,0,7.63-.77,9.73-1.88,1.53-.81,3-3.57,3.4-4.46,0,0-.39,3.87-2.63,5.56-4.06,3.07-10.37,3-10.37,3Z" style="fill: rgb(240, 153, 122); transform-origin: 417.615px 167.09px;" id="elbxweewnec5u" class="animable"></path><path d="M419.12,152a.18.18,0,0,0,0-.09s-.05,0-.08-.08-.22-.05-.3-.06l-.24,0a2.57,2.57,0,0,0-.48,0,5.42,5.42,0,0,0-.91.17c-.15.05-.09.36.05.33a3.19,3.19,0,0,1,1-.12,3.62,3.62,0,0,1,.47,0,1.15,1.15,0,0,1,.26,0c.08,0,.19,0,.26,0A.19.19,0,0,0,419.12,152Z" style="fill: rgb(240, 153, 122); transform-origin: 418.088px 152.015px;" id="elablxwf5s62v" class="animable"></path><path d="M417.83,152.9a1.26,1.26,0,0,0-.39,0,.58.58,0,0,0-.14,0,1.09,1.09,0,0,0-.17.13.17.17,0,0,0,0,.24l.36.08.31.07.08,0s.08,0,0,0a.51.51,0,0,1,.17.07l.12.06a.42.42,0,0,0,.22,0,.18.18,0,0,0,.12-.17C418.58,153.11,418.1,153,417.83,152.9Z" style="fill: rgb(240, 153, 122); transform-origin: 417.799px 153.225px;" id="el7ofw46b54fp" class="animable"></path><path d="M417.94,154.47a1.84,1.84,0,0,0-.89-.55.08.08,0,0,0-.08,0,.17.17,0,0,0,0,.1.2.2,0,0,0,.1.21,1,1,0,0,1,.21.09l.1,0,0,0h0l0,0a1.24,1.24,0,0,1,.18.14l.18.15a.12.12,0,0,0,.18,0A.28.28,0,0,0,417.94,154.47Z" style="fill: rgb(255, 189, 167); transform-origin: 417.452px 154.28px;" id="elccusw0qirt" class="animable"></path><path d="M401.44,151.36l-.11-.07-.13-.07-.25-.12a2.13,2.13,0,0,0-.43-.13.16.16,0,0,0-.18.17.3.3,0,0,0,.17.28,1.67,1.67,0,0,0,.48.15l.24,0h.09a.33.33,0,0,0,.1,0c.05,0,.08-.07.08-.11S401.49,151.38,401.44,151.36Z" style="fill: rgb(240, 153, 122); transform-origin: 400.92px 151.271px;" id="el0t6kqhfiqdvq" class="animable"></path><path d="M401.33,152.59a.19.19,0,0,1,0,.1.11.11,0,0,1-.09.05.17.17,0,0,0-.1,0h0l-.09,0,0,0,0,0-.1,0h-.07a.22.22,0,0,1-.28-.1.51.51,0,0,1-.07-.15.25.25,0,0,1,0-.17.4.4,0,0,1,.16-.13.62.62,0,0,1,.19,0,.71.71,0,0,1,.32.1.2.2,0,0,1,.09.09A.28.28,0,0,1,401.33,152.59Z" style="fill: rgb(240, 153, 122); transform-origin: 400.926px 152.47px;" id="elbh7vm6xe1no" class="animable"></path><g id="ell8uy63xvpgi"><path d="M413.83,161.22a1.14,1.14,0,0,0-.21-.37.74.74,0,0,0-.55-.31.4.4,0,0,0-.3.07.35.35,0,0,0,0,.08.11.11,0,0,0,0,.08.14.14,0,0,0,.11,0,.81.81,0,0,1,.57.25,3.37,3.37,0,0,0,.19.32c.05.05.11.09.18.05A.23.23,0,0,0,413.83,161.22Z" style="opacity: 0.1; transform-origin: 413.302px 160.97px;" class="animable" id="elx3r3qfiix7g"></path></g><path d="M413,152.54c0,.78.61.28,1.35.3s1.32.55,1.34-.22a1.35,1.35,0,1,0-2.69-.08Z" style="fill: rgb(38, 50, 56); transform-origin: 414.348px 152.079px;" id="elhzsw98dlpuc" class="animable"></path><path d="M413.47,148.14l3.26,1.35a1.84,1.84,0,0,0-1-2.36A1.72,1.72,0,0,0,413.47,148.14Z" style="fill: rgb(69, 90, 100); transform-origin: 415.162px 148.248px;" id="elrab23ld4qu" class="animable"></path><path d="M412.75,161.38,408.89,163a2.05,2.05,0,0,0,2.7,1.21A2.18,2.18,0,0,0,412.75,161.38Z" style="fill: rgb(158, 103, 103); transform-origin: 410.901px 162.87px;" id="eli7leqya1m1" class="animable"></path><path d="M410.6,164.31a2.23,2.23,0,0,1,2.15-2.09h.15a2.16,2.16,0,0,1-1.31,2A1.91,1.91,0,0,1,410.6,164.31Z" style="fill: rgb(240, 153, 122); transform-origin: 411.75px 163.279px;" id="elytktxk535x" class="animable"></path><path d="M401.25,149.44l3.22-1.26a1.66,1.66,0,0,0-2.19-1A1.76,1.76,0,0,0,401.25,149.44Z" style="fill: rgb(69, 90, 100); transform-origin: 402.805px 148.25px;" id="elr9myty2u7hg" class="animable"></path><path d="M402.08,152.28c0,.78.61.21,1.36.23s1.32.62,1.34-.15a1.35,1.35,0,1,0-2.7-.08Z" style="fill: rgb(38, 50, 56); transform-origin: 403.43px 151.859px;" id="elvakvqhvzghr" class="animable"></path><polygon points="409.26 158.59 404.28 157.65 408.96 149.7 409.26 158.59" style="fill: rgb(240, 153, 122); transform-origin: 406.77px 154.145px;" id="el3jt7twonvdf" class="animable"></polygon><path d="M414.82,144a6.49,6.49,0,0,0-2.76-.48,23.36,23.36,0,0,0-2.85.62c-1,.14-1.76-.41-2.66-.69a4.41,4.41,0,0,0-2.36-.12s0,0,0,0a6,6,0,0,1,2.56.34,6,6,0,0,0,2.35.88,15.32,15.32,0,0,0,2.55-.63,6.89,6.89,0,0,1,3.16.17C414.85,144.19,414.87,144.06,414.82,144Z" style="fill: rgb(240, 153, 122); transform-origin: 409.52px 143.887px;" id="elji46rhkd7j" class="animable"></path><path d="M413.16,142.23a5.47,5.47,0,0,0-3.57.1,2.25,2.25,0,0,1-1.84-.27,2.81,2.81,0,0,0-1.36-.47s0,0,0,0a3.7,3.7,0,0,1,1.51.78,2.1,2.1,0,0,0,1.36.36c.6-.05,1.18-.27,1.77-.36a5.23,5.23,0,0,1,2.12.13C413.28,142.56,413.26,142.28,413.16,142.23Z" style="fill: rgb(240, 153, 122); transform-origin: 409.816px 142.164px;" id="elaazeujecsm" class="animable"></path></g><g id="freepik--Arm--inject-41" class="animable" style="transform-origin: 428.093px 200.105px;"><path d="M408.91,222.34c-1.93-.67-2.7-2-3.38-3.79-1.07-2.77,0-4.62-.26-7.2a8.37,8.37,0,0,1,.15-3.61s0-1.44-1.78-5c-.64-1.31-.6-2.43.41-2.8-.63-1.83.15-2.55,1.05-2.57-.52-1.42-.85-2.73.54-3.44.14-.08.55.34,1.07,1.36,0-1,1-2.08,1.5-1.41a79.42,79.42,0,0,1,4.43,6.84c1.56,2.74,1.79,4,2.39,9.18.17,1.4.22,3.22,3,3.72s20.82-.65,20.82-.65-2.51-11.45-3.78-19.68c-1.41-9.13-1.08-15.33.77-18.88,9.25.65,11.33,3.62,12.72,9.81s3.58,25.08,4.16,30.12c1,8.39-.84,11.67-8.17,11.45C434.16,225.46,420.39,226.3,408.91,222.34Z" style="fill: rgb(255, 189, 167); transform-origin: 428.093px 200.105px;" id="elmdsqbwbzsin" class="animable"></path><path d="M405,200.77a30.87,30.87,0,0,1,2.32,4.58c.28.9.79,2.85.79,2.85a11.7,11.7,0,0,0-.48-3.08A14,14,0,0,0,405,200.77Z" style="fill: rgb(240, 153, 122); transform-origin: 406.555px 204.485px;" id="elftx0lehl9pe" class="animable"></path><path d="M405.34,197.44c.87,1.49,2.52,3.51,3,4.63a32.83,32.83,0,0,1,1.45,5.27,13.57,13.57,0,0,0-1.13-5.49C407.84,200.11,406.79,199.31,405.34,197.44Z" style="fill: rgb(240, 153, 122); transform-origin: 407.565px 202.39px;" id="elv79mr1u17b8" class="animable"></path><path d="M406.71,195.28c1.25,2,3.18,4.8,3.63,5.64a47.16,47.16,0,0,1,1.43,5.17,25,25,0,0,0-.72-4.62C410.53,199.91,406.71,195.28,406.71,195.28Z" style="fill: rgb(240, 153, 122); transform-origin: 409.24px 200.685px;" id="ellazad27h5g" class="animable"></path></g><path d="M435.62,173.57c5,.72,8.18,1.13,11,4.13s3.48,10.4,4.93,22,2.88,20.61,1.5,23.52-3.27,3.75-12.86,3.67-12,0-12,0l-1.55-13.77,11.78-.49-4.47-18.91S431.17,179.8,435.62,173.57Z" style="fill: rgb(69, 90, 100); transform-origin: 440.125px 200.233px;" id="els1ui16a7b3m" class="animable"></path></g></g><g id="freepik--character-2--inject-41" class="animable" style="transform-origin: 298.82px 206.71px;"><g id="freepik--character--inject-41" class="animable" style="transform-origin: 298.82px 206.71px;"><path d="M272.07,313.25c.37-.28,2.18-1.53,3-2.1a59.24,59.24,0,0,0,5.19-4.14,13.51,13.51,0,0,0,2.63-2.76c1.75-2.28,1.77-3.79,1.56-7.91-.38-7.71-2.09-22.37-2.86-30.48,4.76,1.15,17.07-.83,17.07-.83a104.75,104.75,0,0,1-1.29,13.29c-.69,5-1.61,13.15-1.91,19.4a13.33,13.33,0,0,0,1,6.21c.79,1.86,1,4.25-.22,5.89s-3.86,2.48-6.08,3.08a16.79,16.79,0,0,0-6.58,4.16,16,16,0,0,1-9.11,4c-3.23.1-5.72-.45-7.31-2.82S270.42,314.48,272.07,313.25Z" style="fill: rgb(255, 168, 167); transform-origin: 282.752px 293.05px;" id="elr6detu48y9n" class="animable"></path><path d="M316.53,182.75l-15.38,27.76c-1.32,11.24-1.42,25.26-2.7,36.46,1.14,3.93,1.06,6.61,1.07,11.22,0,5.68-.84,10.66-1.73,18.63-3.54,1.53-11.79,1.65-15.72-.58-.83-9.18-1.24-13.67-3.21-27.28-2.89-19.93-4.45-48.84-2.17-68C289.37,179.91,303.85,183.41,316.53,182.75Z" style="fill: rgb(55, 71, 79); transform-origin: 296.064px 229.354px;" id="elxcc7cpvv2li" class="animable"></path><path d="M338.35,227.11c-7.49-17.63-21.44-51.1-21.44-51.1l-19.7,31.07,18.89,22.13-3.57-.92c-3.84,5.49-3.86,10.94-.37,15.9,3,1.52,6.56,2.84,9.84,4.4,9.94,4.75,15.78,2.88,19.18-1.24C343.47,244.57,343.1,238.28,338.35,227.11Z" style="fill: rgb(55, 71, 79); transform-origin: 319.877px 213.703px;" id="elinpedsgausr" class="animable"></path><polygon points="315.87 229.34 324.21 239.32 313.08 228.58 315.87 229.34" style="fill: rgb(38, 50, 56); transform-origin: 318.645px 233.95px;" id="elo4kzs8j15fd" class="animable"></polygon><path d="M300,225.13a12.58,12.58,0,0,0-5.93-2.52c-4.05.87-4.31,5.84-3.74,10s1.23,8.15.86,9.89-1,7.55,1.47,10.7,5,3.64,6.62,1.86-.85-10.08.22-13.75l1.07-3.68,11.15,5.83a13.85,13.85,0,0,1,.84-15.2Z" style="fill: rgb(255, 168, 167); transform-origin: 301.332px 239.347px;" id="el9x8toek4knq" class="animable"></path><path d="M255.2,171.94c1-5.23,10.25-19,17.59-30.46,3.5-5.45,6.94-7.75,12.1-8.85L288,150.81s-19.88,23.66-20.28,23.66S255.2,171.94,255.2,171.94Z" style="fill: rgb(242, 143, 143); transform-origin: 271.6px 153.55px;" id="elvxfys9m81qq" class="animable"></path><g id="freepik--top--inject-41" class="animable" style="transform-origin: 298.204px 144.338px;"><path d="M301.39,131.1,311,132c-1.49,10.21,5.66,22.18,5.66,22.18-.62,7.37-1.81,13.92-.75,17.32,1.87,6.07,5.5,10.31,6.73,18.12-2.08.88-6.65-.55-10.24-5.73-5.43,16.19-36.09,15.73-36.53,3.49,0,0,.43-7.38.92-12.39a103.52,103.52,0,0,0-.4-17.62c-7.75-12.08,3.68-20.19,8.54-24.73l10.43-2.46Z" style="fill: #29EEC7; transform-origin: 298.204px 163.253px;" id="elin8hl8y4gmo" class="animable"></path><g id="elxaxqfg6za5"><path d="M301.39,131.1,311,132c-1.49,10.21,5.66,22.18,5.66,22.18-.62,7.37-1.81,13.92-.75,17.32,1.87,6.07,5.5,10.31,6.73,18.12-2.08.88-6.65-.55-10.24-5.73-5.43,16.19-36.09,15.73-36.53,3.49,0,0,.43-7.38.92-12.39a103.52,103.52,0,0,0-.4-17.62c-7.75-12.08,3.68-20.19,8.54-24.73l10.43-2.46Z" style="fill: rgb(255, 255, 255); opacity: 0.75; transform-origin: 298.204px 163.253px;" class="animable" id="elh44ypzfg7ho"></path></g><g id="freepik--Head--inject-41" class="animable" style="transform-origin: 295.433px 119.815px;"><path d="M284.18,99.06c-2,1.16-4.61,6.19-4.54,16.82.05,9,2.94,11.29,4.39,12s4.29.33,7.05-.09v3.74c-3.69,5.62-4.75,9.54-4.28,15.75,5.4-8.08,10.51-11.41,16.25-15.46l.12-10.46s1.59,1.6,4.37-.75c2.3-1.94,3.12-5.27,1.38-7.09a3.77,3.77,0,0,0-6.29,1.15s1.13-10.85-4.65-14.15S284.51,102.56,284.18,99.06Z" style="fill: rgb(255, 168, 167); transform-origin: 294.747px 123.17px;" id="eloxhgnd1brfk" class="animable"></path><path d="M290.83,121.15l-2.88.79a1.46,1.46,0,0,0,1.8,1.1A1.57,1.57,0,0,0,290.83,121.15Z" style="fill: rgb(242, 143, 143); transform-origin: 289.414px 122.119px;" id="elyhmt29iq55" class="animable"></path><path d="M281.31,108.16l2.92-.74a1.45,1.45,0,0,0-1.78-1.12A1.59,1.59,0,0,0,281.31,108.16Z" style="fill: rgb(69, 90, 100); transform-origin: 282.753px 107.208px;" id="eliv049pz0dx" class="animable"></path><path d="M294.49,110l-2.61-1.51a1.45,1.45,0,0,1,2-.59A1.59,1.59,0,0,1,294.49,110Z" style="fill: rgb(69, 90, 100); transform-origin: 293.273px 108.856px;" id="ely6z695t0n6e" class="animable"></path><path d="M281.58,112.35a1.23,1.23,0,1,0,2.44.22,1.25,1.25,0,0,0-1.1-1.38A1.26,1.26,0,0,0,281.58,112.35Z" style="fill: rgb(38, 50, 56); transform-origin: 282.794px 112.494px;" id="elpmeinlgqmmm" class="animable"></path><path d="M291.08,113.26a1.25,1.25,0,0,0,1.1,1.38,1.28,1.28,0,1,0-1.1-1.38Z" style="fill: rgb(38, 50, 56); transform-origin: 292.354px 113.372px;" id="elhvtxr34qvgb" class="animable"></path><path d="M291.08,127.74c2.9-.33,8.89-1.94,9.86-4.28a6.12,6.12,0,0,1-2.14,3c-1.81,1.5-7.73,3.09-7.73,3.09Z" style="fill: rgb(242, 143, 143); transform-origin: 296.005px 126.505px;" id="elqe17zbn104" class="animable"></path><path d="M294.24,112.73a.33.33,0,0,1,.19-.13l.39-.14.52-.17.44-.14.29-.06a1.1,1.1,0,0,1,.36,0c.1,0,.11.15.09.23a.28.28,0,0,1-.21.21,1.41,1.41,0,0,1-.22.06l-.14,0h-.09l-.14,0-.46.14a2.65,2.65,0,0,1-.62.14.55.55,0,0,1-.31,0A.17.17,0,0,1,294.24,112.73Z" style="fill: rgb(242, 143, 143); transform-origin: 295.384px 112.484px;" id="ele92pwizuzps" class="animable"></path><path d="M294.32,113.68a.66.66,0,0,1,.45-.25,3.84,3.84,0,0,1,.76,0l.86,0c.28,0,.11.44-.1.46a5.6,5.6,0,0,1-1.08,0h-.63l-.13,0c-.07,0-.07,0-.12-.08A.08.08,0,0,1,294.32,113.68Z" style="fill: rgb(242, 143, 143); transform-origin: 295.414px 113.664px;" id="el4v0ymzrtz3m" class="animable"></path><path d="M294.35,114.29c.08-.07.19,0,.27,0l.19,0,.38.13.37.1.15,0,.19.07a.14.14,0,0,1,.1.15v0a.26.26,0,0,1-.12.21.38.38,0,0,1-.18,0h-.05l-.17,0-.19,0-.39-.12a1.24,1.24,0,0,1-.45-.25.33.33,0,0,1-.11-.15A.18.18,0,0,1,294.35,114.29Z" style="fill: rgb(242, 143, 143); transform-origin: 295.166px 114.61px;" id="eltpltl8bm3a" class="animable"></path><path d="M280,109.44a.08.08,0,0,1,0,0c.47-2.86,1-5,1.15-5.49a.22.22,0,0,1,0-.1c.07,6.61,8.75,6.19,8.75,6.19-1.67-4.32.47-6.09.47-6.09,2.26,5.59,6.63,6.56,6.63,6.56,0-4,1.66-5.93,1.66-5.93-.77,7,3.95,10.07,3.95,10.07,1.29-2.53,3.93-3,5.67-1.14s1.3,4.39-.85,6.62c-2.54,2.62-4.28,1.23-4.28,1.23l-.07,6.51c.33-3.08,10-6.75,10.13-17.28.08-8.53-3.27-15.82-12.9-17.78a17.9,17.9,0,0,0-13.77,2.42c-3.2-.23-7.13.55-8.56,5.92A8.68,8.68,0,0,0,280,109.44Z" style="fill: rgb(224, 224, 224); transform-origin: 295.433px 110.11px;" id="elg4zbxtk17gv" class="animable"></path><path d="M287.88,112.69l-.88,7.07-4.14-1.51,4.63-5.73A.87.87,0,0,1,287.88,112.69Z" style="fill: rgb(242, 143, 143); transform-origin: 285.37px 116.14px;" id="elf7tu4yd5p8w" class="animable"></path></g></g><path d="M272.67,162c-1.53,3.26-9.47,2.71-12.82,4.92-4.21,2.79-6.89,6.34-2.51,8.78a12.46,12.46,0,0,0,11.6.74c5-2.06,8-3.58,8-3.58Z" style="fill: rgb(255, 168, 167); transform-origin: 266.018px 169.765px;" id="ellebi3pusk1" class="animable"></path><g id="freepik--arm--inject-41" class="animable" style="transform-origin: 277.729px 158.586px;"><path d="M277.86,172.47c1.49-.86,4.29-3.3,4.64-5.1.5-2.56-.31-4.09-.32-6.58a7.92,7.92,0,0,0-.48-3.42s-.1-1.38,1.21-4.94c.49-1.31.35-2.38-.65-2.63.42-1.81-.39-2.42-1.25-2.35.36-1.4.55-2.68-.85-3.23-.14-.05-.48.39-.88,1.4-.06-.93-1.14-1.88-1.57-1.19a74.26,74.26,0,0,0-3.56,6.93c-1.22,2.77-1.32,4-1.4,9-.05,3.11-.77,6.19-.34,9.32a3.21,3.21,0,0,0,1.62,2.85A4.07,4.07,0,0,0,277.86,172.47Z" style="fill: rgb(255, 168, 167); transform-origin: 277.729px 158.586px;" id="elktv4kn6cgd" class="animable"></path><path d="M277.21,163.77a7.9,7.9,0,0,1,.54-3.41s.12-1.38-1.14-5c-.46-1.31-.31-2.37.69-2.61-.39-1.81.43-2.41,1.29-2.33-.34-1.41-.51-2.69.9-3.21.14-.06.48.39.86,1.41a1.85,1.85,0,0,1,.66-1.2,6.3,6.3,0,0,1-.25,1.74c.85-.08,1.67.54,1.25,2.34,1,.25,1.13,1.32.65,2.63-1.32,3.56-1.21,4.94-1.21,4.94a7.92,7.92,0,0,1,.48,3.42c0,2.49.82,4,.31,6.58a5.6,5.6,0,0,1-2.92,3.88c-.32.18-1.14-.71-1.46-.51a4.88,4.88,0,0,1-1.14-2.6C276.36,167.58,277.17,166.26,277.21,163.77Z" style="fill: rgb(242, 143, 143); transform-origin: 279.645px 160.089px;" id="elk53nsy5e16" class="animable"></path></g><g id="freepik--arm--inject-41" class="animable" style="transform-origin: 299.752px 157.014px;"><path d="M280,174.59c-1.75-.84-2.34-2.2-2.8-4-.7-2.76.52-4.39.56-6.88a7.88,7.88,0,0,1,.54-3.41s.12-1.38-1.14-5c-.46-1.31-.3-2.38.7-2.61-.4-1.81.43-2.42,1.28-2.33-.33-1.41-.5-2.69.9-3.21.14-.06.48.39.87,1.41.07-.94,1.16-1.87,1.58-1.17a74.71,74.71,0,0,1,3.45,7c1.18,2.78,1.26,4,1.26,9,0,1.35-.14,3.09,2.47,3.88S309.56,169,309.56,169s-1.12-11.16-1.42-19.13c-.33-8.84.67-14.69,2.82-17.87,7.85.64,10.38,4.7,11,10.74s.63,24.24.63,29.1c0,8.08-2.1,11-9,10C303.68,180.36,290.49,179.63,280,174.59Z" style="fill: rgb(255, 168, 167); transform-origin: 299.752px 157.014px;" id="elg6xr6ecz4ym" class="animable"></path><path d="M278.64,153.65a28.93,28.93,0,0,1,1.7,4.61c.17.88.44,2.8.44,2.8a11.47,11.47,0,0,0-.11-3A13.56,13.56,0,0,0,278.64,153.65Z" style="fill: rgb(242, 143, 143); transform-origin: 279.736px 157.355px;" id="elgbbk0d3vtmo" class="animable"></path><path d="M279.38,150.52c.65,1.52,2,3.62,2.31,4.74a31.42,31.42,0,0,1,.79,5.17,12.94,12.94,0,0,0-.47-5.35C281.45,153.34,280.54,152.46,279.38,150.52Z" style="fill: rgb(242, 143, 143); transform-origin: 280.978px 155.475px;" id="elnpms473pr9" class="animable"></path><path d="M280.92,148.62c1,2,2.49,4.91,2.82,5.76a44.35,44.35,0,0,1,.79,5.08,23.86,23.86,0,0,0-.17-4.47C284,153.44,280.92,148.62,280.92,148.62Z" style="fill: rgb(242, 143, 143); transform-origin: 282.744px 154.04px;" id="elwy1hb9gsdy" class="animable"></path></g></g></g><g id="freepik--character-1--inject-41" class="animable" style="transform-origin: 146.645px 299.776px;"><g id="freepik--character-bike--inject-41" class="animable" style="transform-origin: 146.645px 299.776px;"><path d="M147.76,329.89c.67-1.28,1.28-2,5.11-4.53s27.53-18,27.53-18-9.32-18.06-13.23-15.57c-5,3.21-10.09,9.14-12.72,12.72a67.26,67.26,0,0,1-11.21,12.52c-4.22,1.72-4.52,2.79-4,6.33S147.76,329.89,147.76,329.89Z" style="fill: rgb(158, 103, 103); transform-origin: 159.724px 310.722px;" id="eljfmwmv7zomq" class="animable"></path><path d="M142.45,352.14a3.79,3.79,0,0,1-3.95,1A13.92,13.92,0,0,1,130,345.7c-2.51-5.31-1.69-8.09-.63-10.44s3.48-5.2,3.64-7.33-.23-3.78.2-5.22a8.28,8.28,0,0,1,2-2.9Z" style="fill: rgb(55, 71, 79); transform-origin: 135.398px 336.571px;" id="elwlqckzy1aes" class="animable"></path><path d="M143.24,317.05s-.87.52-1.09.7a3.62,3.62,0,0,0-1.33,4.54c.33.91,2.07,1.1,3.31,1.66a7.78,7.78,0,0,1,4.51,5.59c-2.22,3.74-3.57,5.95-4.21,9.6a38.93,38.93,0,0,0,0,6c.29,1.88.93,5-1.07,6.37A4.6,4.6,0,0,1,140,352a13.3,13.3,0,0,1-8.66-6.86,11.27,11.27,0,0,1-.44-10.54c1.08-2.69,3.12-5.07,3.2-7.44s-.83-3.74.24-6.47a4.39,4.39,0,0,1,3.17-2.31C140.65,317.62,143.09,316,143.24,317.05Z" style="fill: #29EEC7; transform-origin: 139.22px 334.415px;" id="el3c3jg2y2e8e" class="animable"></path><g id="ell5y9ofxvci8"><path d="M143.24,317.05s-.87.52-1.09.7a3.62,3.62,0,0,0-1.33,4.54c.33.91,2.07,1.1,3.31,1.66a7.78,7.78,0,0,1,4.51,5.59c-2.22,3.74-3.57,5.95-4.21,9.6a38.93,38.93,0,0,0,0,6c.29,1.88.93,5-1.07,6.37A4.6,4.6,0,0,1,140,352a13.3,13.3,0,0,1-8.66-6.86,11.27,11.27,0,0,1-.44-10.54c1.08-2.69,3.12-5.07,3.2-7.44s-.83-3.74.24-6.47a4.39,4.39,0,0,1,3.17-2.31C140.65,317.62,143.09,316,143.24,317.05Z" style="opacity: 0.4; transform-origin: 139.22px 334.415px;" class="animable" id="el1i9v93zb3zn"></path></g><path d="M134.14,339.4a9.51,9.51,0,0,1,10.21,4.87h0a7.47,7.47,0,0,1,.25,1.05c.3,1.88,1,4.9-1,6.27a4.08,4.08,0,0,1-3.49.59,13.84,13.84,0,0,1-8.76-7,13.31,13.31,0,0,1-1.22-3.1l0-.13a.43.43,0,0,1,0-.11A7.87,7.87,0,0,1,134.14,339.4Z" style="fill: rgb(240, 240, 240); transform-origin: 137.546px 345.783px;" id="el89i0yttc8u7" class="animable"></path><path d="M151.07,261.48c8.47,5.64,18.05,14.15,25.87,21.48,7.31,6.85,11,14.68,9,19.4s-3.23,5.61-11,10.57c-6.74,4.31-11.9,7.49-11.9,7.49s-8.77-9.56-9.8-15.84l3.92-4.67-17.9-11.16S134,270.38,151.07,261.48Z" style="fill: rgb(55, 71, 79); transform-origin: 162.487px 290.95px;" id="elqvxuoio9xrl" class="animable"></path><path d="M142.61,282.74a15.09,15.09,0,0,0,7.6-8.17c.07,3.66-1,8-7,12Z" style="fill: rgb(38, 50, 56); transform-origin: 146.412px 280.57px;" id="elsprwyfnmvi" class="animable"></path><path d="M96.38,289.86l-1.94-1.12a27.6,27.6,0,0,0-13.27-4.13h-.35a17.45,17.45,0,0,0-2.07.12c-6.32.67-10.3,2.56-14,7.31l-.22.27a5.72,5.72,0,0,0-.37.49l-.24.33c-.1.14-.19.28-.28.42s-.35.55-.52.84l-.17.31a4.13,4.13,0,0,0-.22.42l0,0A22.73,22.73,0,0,0,60,306v.9c0,.42,0,.85,0,1.27v2.24c0,19.36,13.59,42.91,30.36,52.58l1.94,1.13a27.82,27.82,0,0,0,13.27,4.13h.28l.78,0h.26l.67-.06a3.11,3.11,0,0,0,.33,0l.18,0c6.52-.72,10.66-2.82,14.34-7.86.16-.21.32-.43.47-.65l.05-.08c.18-.26.31-.54.51-.79,2-2.54,3.36-8.14,3.36-14.08v-2.24C126.74,323.08,113.15,299.53,96.38,289.86Zm-5.11,70.62c-15.82-9.13-28.65-31.35-28.65-49.62s12.83-25.68,28.65-16.54,28.65,31.35,28.65,49.62S107.09,369.62,91.27,360.48Z" style="fill: rgb(69, 90, 100); transform-origin: 93.3999px 326.43px;" id="el8b4wb8bcbu" class="animable"></path><path d="M92.24,291.79l-1.94-1.12C82,285.88,74.49,285.38,69,288.44a4.78,4.78,0,0,0-.42.26l-.11.06-.49.31-.48.34a10.39,10.39,0,0,0-.91.73l-.44.39c-.29.27-.57.55-.84.85-.14.15-.27.3-.4.46s-.26.3-.39.47a5.72,5.72,0,0,0-.37.49l-.24.33c-.1.14-.19.28-.28.42s-.35.55-.52.84l-.17.31a4.13,4.13,0,0,0-.22.42l-.22.42c-.25.51-.49,1-.7,1.6-.12.29-.23.59-.33.89,0,0,0,0,0,0-.19.55-.36,1.12-.51,1.7-.09.31-.16.63-.24,1s-.16.74-.23,1.12l-.09.54c-.06.31-.1.63-.14.94s-.09.7-.13,1.07c0,.05,0,.12,0,.17,0,.31-.06.62-.08.93l0,.38c0,.35,0,.7,0,1.05s0,.85,0,1.27v2.24c0,19.36,13.59,42.91,30.36,52.58l1.94,1.13c4.87,2.81,9.47,4.14,13.55,4.14l.78,0h.26l.67-.06a3.11,3.11,0,0,0,.33,0c.23,0,.45-.06.67-.09a5.59,5.59,0,0,0,.59-.11,4.78,4.78,0,0,0,.57-.12c.36-.08.72-.18,1.06-.29l.45-.14.48-.18.41-.16c.29-.12.58-.25.86-.4l.42-.21a.41.41,0,0,1,.11-.07.51.51,0,0,0,.16-.09l.27-.15c5.39-3.21,8.71-10,8.71-19.54v-2.24C122.59,325,109,301.46,92.24,291.79Zm-1,68.69c-15.82-9.13-28.65-31.35-28.65-49.62s12.83-25.68,28.65-16.54,28.65,31.35,28.65,49.62S107.09,369.62,91.27,360.48Z" style="fill: rgb(55, 71, 79); transform-origin: 91.375px 327.406px;" id="elbvhv0e2uugr" class="animable"></path><path d="M112.58,355.8c-4.53,5.39-12.39,6.16-21.31,1C77.2,348.69,65.8,328.94,65.8,312.69c0-7.25,2.28-12.58,6.06-15.54-2.64,3.12-4.17,7.76-4.17,13.71,0,16.24,11.41,36,25.47,44.11C100.94,359.46,107.9,359.46,112.58,355.8Z" style="fill: #29EEC7; transform-origin: 89.19px 328.717px;" id="elnitez0yv8d" class="animable"></path><g id="el971p1g611fk"><path d="M112.58,355.8c-4.53,5.39-12.39,6.16-21.31,1C77.2,348.69,65.8,328.94,65.8,312.69c0-7.25,2.28-12.58,6.06-15.54-2.64,3.12-4.17,7.76-4.17,13.71,0,16.24,11.41,36,25.47,44.11C100.94,359.46,107.9,359.46,112.58,355.8Z" style="opacity: 0.2; transform-origin: 89.19px 328.717px;" class="animable" id="elvx9i0vepibn"></path></g><path d="M91.27,294.32c-15.83-9.14-28.65-1.73-28.65,16.54s12.82,40.49,28.65,49.62,28.65,1.73,28.65-16.54S107.09,303.45,91.27,294.32Zm0,62.49C77.2,348.69,65.8,328.94,65.8,312.7S77.2,289.87,91.27,298s25.46,27.87,25.46,44.11S105.33,364.93,91.27,356.81Z" style="fill: #29EEC7; transform-origin: 91.27px 327.398px;" id="eltr5ad8n3ija" class="animable"></path><path d="M115.87,334c-.05-.28-.12-.57-.18-.86L93.5,327.22l19.82-1.77c-.09-.26-.19-.51-.29-.76l-20,1.79,16.31-9.42c-.13-.23-.27-.45-.4-.67l-16.3,9.41,11.5-16.37-.51-.64L92.22,325l5.88-22-.65-.58-5.79,21.61V298.23l-.39-.24-.4-.21v25.37l-5.69-27.82-.85-.23L90,322.55l-10.87-28c-.27,0-.54,0-.81.07l10.79,27.81L73.77,295.94c-.23.12-.46.24-.68.38l15.29,26.49L69.6,299.44c-.17.21-.32.44-.48.66l18.93,23.55L66.87,304.87l-.24.83,21.48,19.05L65.82,311.88c0,.27,0,.54,0,.82v.07l22.69,13.1-22-5.89c0,.29.1.57.16.86l22.36,6-20.1,1.8c.09.25.19.5.29.76l20.31-1.82-16.62,9.6c.13.23.25.46.38.68l16.64-9.6L78.14,345l.51.63,11.67-16.59-6,22.57.65.59,6-22.22v26.57l.4.24.39.21V330.89l5.86,28.63.84.22L92.58,331.5l11.15,28.74c.28,0,.55,0,.81-.08L93.47,331.63l15.62,27.05c.23-.12.45-.26.67-.4l-15.61-27L113.23,355c.15-.22.31-.44.46-.68L94.48,330.4l21.35,18.93c.08-.28.15-.57.22-.86L94.42,329.3l22.31,12.88v-.08c0-.27,0-.56,0-.84L94,328.17Z" style="fill: rgb(235, 235, 235); transform-origin: 91.275px 327.395px;" id="ele2j3033hk2p" class="animable"></path><path d="M92.48,319.58c-1.75-1-3.33-1.07-4.46-.37-.23.15-.51.28-.81.45l-.24.16,0,0h0a3.31,3.31,0,0,0-.3.25l-.06.06a2.16,2.16,0,0,0-.25.27.76.76,0,0,1-.08.11,2.75,2.75,0,0,0-.19.28l-.09.17a2.59,2.59,0,0,0-.14.29,1.57,1.57,0,0,0-.09.23,2.31,2.31,0,0,0-.1.28c0,.1-.06.2-.08.3a2.61,2.61,0,0,0-.06.27c0,.13,0,.27-.06.4l0,.23q0,.33,0,.69a13.66,13.66,0,0,0,6.18,10.7l.63.33.37.14a1.3,1.3,0,0,0,.25.1L93,335a2.3,2.3,0,0,0,.35.1l.13,0,.45.07h0a3.29,3.29,0,0,0,2-.47c.3-.18.57-.31.91-.51,1.08-.66,1.75-2,1.75-4A13.66,13.66,0,0,0,92.48,319.58Zm-1.76,11.87a15,15,0,0,1-3.13-4.72,10,10,0,0,0,1.08.66c1.61.84,1.57-.29,2.22.49s.53,2.7,0,3.69A.76.76,0,0,1,90.72,331.45Zm3.13-7.32-.26.12-1,.54a1.27,1.27,0,0,0-.48.47,8.63,8.63,0,0,1-1.64-4.61,10.46,10.46,0,0,1,4,3.13l.07.18A4.55,4.55,0,0,0,93.85,324.13Zm-4.69-.81c.52,1.87,1.3,2.15,1.35,2.76-1.21-.2-3.19-1.38-3.32-2.55a4.67,4.67,0,0,1,1.07-3.13C88.77,320.62,88.74,321.79,89.16,323.32Zm3.49,9.79c-.64-.59.07-1.16.4-2.38A3.25,3.25,0,0,0,93,329c1.26,1,3.16,3.62,2.67,4.4l-.06.08A4.06,4.06,0,0,1,92.65,333.11Zm3-4.06c-1.34-1.79-1.88-1.17-2.2-2.13a1.22,1.22,0,0,1,.44-1.29,1.58,1.58,0,0,1,1.94.65,11.63,11.63,0,0,1,1.05,4.61C96.58,330.41,96.18,329.73,95.67,329.05Z" style="fill: rgb(224, 224, 224); transform-origin: 92.03px 326.965px;" id="elc9dsyhxh8i4" class="animable"></path><g id="elkceqpm5iw7"><path d="M92.48,319.58c-1.75-1-3.33-1.07-4.46-.37-.23.15-.51.28-.81.45l-.24.16,0,0h0a3.31,3.31,0,0,0-.3.25l-.06.06a2.16,2.16,0,0,0-.25.27.76.76,0,0,1-.08.11,2.75,2.75,0,0,0-.19.28l-.09.17a2.59,2.59,0,0,0-.14.29,1.57,1.57,0,0,0-.09.23,2.31,2.31,0,0,0-.1.28c0,.1-.06.2-.08.3a2.61,2.61,0,0,0-.06.27c0,.13,0,.27-.06.4l0,.23q0,.33,0,.69a13.66,13.66,0,0,0,6.18,10.7l.63.33.37.14a1.3,1.3,0,0,0,.25.1L93,335a2.3,2.3,0,0,0,.35.1l.13,0,.45.07h0a3.29,3.29,0,0,0,2-.47c.3-.18.57-.31.91-.51,1.08-.66,1.75-2,1.75-4A13.66,13.66,0,0,0,92.48,319.58Zm-1.76,11.87a15,15,0,0,1-3.13-4.72,10,10,0,0,0,1.08.66c1.61.84,1.57-.29,2.22.49s.53,2.7,0,3.69A.76.76,0,0,1,90.72,331.45Zm3.13-7.32-.26.12-1,.54a1.27,1.27,0,0,0-.48.47,8.63,8.63,0,0,1-1.64-4.61,10.46,10.46,0,0,1,4,3.13l.07.18A4.55,4.55,0,0,0,93.85,324.13Zm-4.69-.81c.52,1.87,1.3,2.15,1.35,2.76-1.21-.2-3.19-1.38-3.32-2.55a4.67,4.67,0,0,1,1.07-3.13C88.77,320.62,88.74,321.79,89.16,323.32Zm3.49,9.79c-.64-.59.07-1.16.4-2.38A3.25,3.25,0,0,0,93,329c1.26,1,3.16,3.62,2.67,4.4l-.06.08A4.06,4.06,0,0,1,92.65,333.11Zm3-4.06c-1.34-1.79-1.88-1.17-2.2-2.13a1.22,1.22,0,0,1,.44-1.29,1.58,1.58,0,0,1,1.94.65,11.63,11.63,0,0,1,1.05,4.61C96.58,330.41,96.18,329.73,95.67,329.05Z" style="opacity: 0.2; transform-origin: 92.03px 326.965px;" class="animable" id="elj6a7vtndgbj"></path></g><path d="M91.53,320.12c-3.41-2-6.18-.37-6.18,3.57a13.66,13.66,0,0,0,6.18,10.7c3.41,2,6.17.37,6.17-3.57A13.65,13.65,0,0,0,91.53,320.12Zm-1.53.42c1.22,0,4.15,2.4,4.56,3.24s-.67.54-1.65.89c-1.26.44-.66,1.65-1.4,1.35C90.44,325.57,88.78,320.52,90,320.54Zm-1.84-.19c.63.11.55,1.34,1,3,.57,2.06,1.47,2.19,1.34,3-.18,1.13-4.07-.55-4.26-2.22S87.53,320.24,88.16,320.35ZM89.77,332a14.32,14.32,0,0,1-3.38-5.54c0-.79,1,.29,2.28.94,1.61.84,1.57-.29,2.22.49C91.85,329,91.11,333,89.77,332Zm5.94,1.37c-.64,1-3.36.88-4,.29s.07-1.16.4-2.38c.42-1.55-.5-2.38,0-2.67C92.92,328.18,96.35,332.35,95.71,333.36Zm-1-3.78c-1.35-1.79-1.88-1.17-2.2-2.13-.49-1.4,2.38-2.83,3.32-1.17s1.28,5.31.9,5.73S95.79,331,94.73,329.58Z" style="fill: rgb(224, 224, 224); transform-origin: 91.525px 327.255px;" id="el5wwhla5bz3h" class="animable"></path><path d="M91.27,330.77c1.61.94,2.92.18,2.92-1.68A6.45,6.45,0,0,0,91.27,324c-1.62-.93-2.92-.18-2.92,1.68A6.43,6.43,0,0,0,91.27,330.77Z" style="fill: rgb(69, 90, 100); transform-origin: 91.27px 327.387px;" id="elzii0ob83g" class="animable"></path><path d="M107.19,295.87l-1.36,1.18a50.16,50.16,0,0,0-9.45-7.19l-1.94-1.12a27.66,27.66,0,0,0-13.28-4.14h-.34a17.75,17.75,0,0,0-2.08.12c-6.3.67-10.29,2.56-14,7.32l-.22.26a5.72,5.72,0,0,0-.37.49,4,4,0,0,0-.23.34c-.11.13-.2.27-.3.41s-.34.55-.5.84c-.06.09-.12.2-.18.31a4.13,4.13,0,0,0-.22.42l0,0A22.73,22.73,0,0,0,60,306v.9c0,.42,0,.85,0,1.28v2.23A55.8,55.8,0,0,0,64,330.33l-1.12.81a72.68,72.68,0,0,1-6.24-24.27c-.7-12.78,6-22.93,19.4-25.43S107.19,295.87,107.19,295.87Z" style="fill: rgb(224, 224, 224); transform-origin: 81.8901px 306.164px;" id="el16bt1nqh8rf" class="animable"></path><g id="elriwivi0pbli"><path d="M107.19,295.87l-1.36,1.18a50.16,50.16,0,0,0-9.45-7.19l-1.94-1.12a27.66,27.66,0,0,0-13.28-4.14h-.34a17.75,17.75,0,0,0-2.08.12c-6.3.67-10.29,2.56-14,7.32l-.22.26a5.72,5.72,0,0,0-.37.49,4,4,0,0,0-.23.34c-.11.13-.2.27-.3.41s-.34.55-.5.84c-.06.09-.12.2-.18.31a4.13,4.13,0,0,0-.22.42l0,0A22.73,22.73,0,0,0,60,306v.9c0,.42,0,.85,0,1.28v2.23A55.8,55.8,0,0,0,64,330.33l-1.12.81a72.68,72.68,0,0,1-6.24-24.27c-.7-12.78,6-22.93,19.4-25.43S107.19,295.87,107.19,295.87Z" style="opacity: 0.3; transform-origin: 81.8901px 306.164px;" class="animable" id="el485sice616h"></path></g><path d="M109.64,296.09a11.54,11.54,0,0,1-3.88,2.93l-.12.06a15.22,15.22,0,0,1-1.69.67l-.11,0a64.25,64.25,0,0,0-12.39-10.12C73,278.47,58,284.08,57.91,307.83a64.92,64.92,0,0,0,5,23.31,5,5,0,0,1-2.38-1,61.82,61.82,0,0,1-4.41-21.79V305.9c0-.48,0-1,0-1.42v-1a25.24,25.24,0,0,1,3-12.06l0-.05c.09-.17.16-.32.25-.47l.2-.34c.17-.33.37-.62.56-.93.1-.16.2-.31.32-.47s.17-.25.27-.37a4.26,4.26,0,0,1,.41-.54l.24-.3.19-.23c4.05-5.11,8.45-7.16,15.36-7.89a19.2,19.2,0,0,1,2.3-.14h.39c4.45.06,9.46,1.53,14.75,4.59l2.15,1.24A58.37,58.37,0,0,1,109.64,296.09Z" style="fill: rgb(250, 250, 250); transform-origin: 82.8798px 305.415px;" id="el3ucnlfo1hch" class="animable"></path><path d="M105.76,299h0l-.12.05a5.73,5.73,0,0,1-1.69.67l-.11,0a64.25,64.25,0,0,0-12.39-10.12C73,278.47,58,284.08,57.91,307.83a64.92,64.92,0,0,0,5,23.31,5,5,0,0,1-2.38-1,61.82,61.82,0,0,1-4.41-21.79V305.9c0-.48,0-1,0-1.42s0-.78.06-1.17c0-.14,0-.28,0-.41,0-.35.06-.7.09-1a1.23,1.23,0,0,1,0-.19c0-.41.08-.8.14-1.19s.09-.7.15-1,.07-.41.11-.6c.07-.42.16-.85.25-1.25l.27-1.07c.17-.64.36-1.28.56-1.88,0,0,0,0,0,0,.11-.34.24-.66.37-1a16.63,16.63,0,0,1,.78-1.77l.2-.42,0-.05c.09-.17.16-.32.25-.47l.2-.34c.17-.33.37-.62.56-.93.1-.16.2-.31.32-.47s.17-.25.27-.37a4.26,4.26,0,0,1,.41-.54l.24-.3.19-.23q.21-.25.45-.51a11.78,11.78,0,0,1,.93-.94c.15-.15.32-.29.48-.43a11,11,0,0,1,1-.81l.53-.38.54-.35.12-.07.47-.28c6.09-3.4,14.44-2.85,23.66,2.47L92,287.67A59.12,59.12,0,0,1,105.76,299Z" style="fill: rgb(224, 224, 224); transform-origin: 80.94px 306.533px;" id="els9sjjtppvxe" class="animable"></path><path d="M187.69,336.67a1.05,1.05,0,0,0-1.47-.21l-2.69,2-.48-2L136.74,364s-.85.46-.91.51L91.39,326.35a1,1,0,0,0-1.48.11A1.06,1.06,0,0,0,90,328l46.07,39.53a2.6,2.6,0,0,0,.36.25,1.85,1.85,0,0,0,.93.27,2.13,2.13,0,0,0,1.25-.48h0l45.44-26.82,3.41-2.55A1.06,1.06,0,0,0,187.69,336.67Z" style="fill: #29EEC7; transform-origin: 138.77px 347.062px;" id="el1iyxbjhfzrv" class="animable"></path><g id="el7do7xnp1tvq"><path d="M187.69,336.67a1.05,1.05,0,0,0-1.47-.21l-2.69,2-.48-2L136.74,364s-.85.46-.91.51L91.39,326.35a1,1,0,0,0-1.48.11A1.06,1.06,0,0,0,90,328l46.07,39.53a2.6,2.6,0,0,0,.36.25,1.85,1.85,0,0,0,.93.27,2.13,2.13,0,0,0,1.25-.48h0l45.44-26.82,3.41-2.55A1.06,1.06,0,0,0,187.69,336.67Z" style="opacity: 0.3; transform-origin: 138.77px 347.062px;" class="animable" id="elmcy2tjiwnka"></path></g><path d="M137,367.87a1.06,1.06,0,0,1-1-.85l-10.19-85.24a1.12,1.12,0,0,1,.67-1.27,1.06,1.06,0,0,1,1.38.8L138,366.62a1.06,1.06,0,0,1-.84,1.24Z" style="fill: #29EEC7; transform-origin: 131.902px 324.162px;" id="elnhuyc5a9cxm" class="animable"></path><g id="el2w210ap92sg"><path d="M137,367.87a1.06,1.06,0,0,1-1-.85l-10.19-85.24a1.12,1.12,0,0,1,.67-1.27,1.06,1.06,0,0,1,1.38.8L138,366.62a1.06,1.06,0,0,1-.84,1.24Z" style="opacity: 0.3; transform-origin: 131.902px 324.162px;" class="animable" id="el3fekaxqjuau"></path></g><path d="M91.49,327.7a1,1,0,0,1,.24-1.6l12.88-6.72A67.64,67.64,0,0,1,157.4,314a136.07,136.07,0,0,1,14.91,5c4.88,2.1,10,6.25,10.84,12.08l.06.47s.82,7-8.33,3.35-26.59-10.36-35.08-12.42-13.57-4.42-14.63-7.9c-7.71,1.39-17.17,5.06-32.51,13.27a1,1,0,0,1-1.17-.17Z" style="fill: #29EEC7; transform-origin: 137.21px 323.451px;" id="elcfosl0fcmwl" class="animable"></path><path d="M173.13,323c-9-5.64-34.26-11.35-48-8.36a5,5,0,0,0,.85,1.61c12.85-.87,25,2,32.31,6.15,6.08,3.49,6.84,7.54,6.92,8.81,3.63,1.38,7,2.7,9.63,3.75,4.75,1.88,6.81.91,7.7-.47C182.44,331.17,181.51,328.18,173.13,323Z" style="fill: rgb(69, 90, 100); transform-origin: 153.835px 324.911px;" id="el1ekakbh25u3" class="animable"></path><path d="M138.5,356.06c-2.42-1.4-4.6-1.48-6.16-.51-.32.21-.71.38-1.13.63l-.33.21-.06,0,0,0a4.35,4.35,0,0,0-.41.34l-.09.09a4,4,0,0,0-.34.37l-.12.15c-.09.13-.18.26-.26.4l-.13.23c-.06.12-.13.25-.19.39a3.05,3.05,0,0,0-.13.32l-.13.39c0,.14-.08.28-.11.42l-.09.37c0,.18-.05.37-.08.56s0,.21,0,.31c0,.31,0,.62,0,.95,0,5.45,3.83,12.08,8.54,14.8.3.17.59.32.88.46s.34.13.51.2l.34.14.35.09.48.14.19,0,.62.09h0a4.44,4.44,0,0,0,2.78-.65c.42-.25.78-.43,1.25-.71,1.5-.9,2.43-2.79,2.43-5.47C147.05,365.42,143.22,358.79,138.5,356.06Zm-2.44,16.42c-1.46-1.14-3.52-4.6-4.32-6.52a16.74,16.74,0,0,0,1.49.91c2.22,1.15,2.17-.41,3.07.67s.73,3.73,0,5.1A1.53,1.53,0,0,1,136.06,372.48Zm4.34-10.12a2.57,2.57,0,0,0-.37.16l-1.31.75a1.79,1.79,0,0,0-.66.65,11.92,11.92,0,0,1-2.27-6.38c1.91.65,5.1,3.31,5.59,4.34a1.86,1.86,0,0,1,.09.24A5.45,5.45,0,0,0,140.4,362.36Zm-6.49-1.13c.72,2.58,1.8,3,1.87,3.82-1.68-.27-4.41-1.9-4.6-3.52a6.53,6.53,0,0,1,1.48-4.34C133.37,357.5,133.32,359.12,133.91,361.23Zm4.83,13.55c-.89-.82.1-1.61.55-3.29a4.52,4.52,0,0,0,0-2.45c1.75,1.38,4.38,5,3.7,6.08l-.09.11C141.41,375.61,139.36,375.35,138.74,374.78Zm4.17-5.62c-1.86-2.48-2.59-1.63-3-3a1.69,1.69,0,0,1,.6-1.78,2.18,2.18,0,0,1,2.69.9,16.25,16.25,0,0,1,1.46,6.37C144.17,371,143.62,370.1,142.91,369.16Z" style="fill: rgb(224, 224, 224); transform-origin: 137.918px 366.262px;" id="el5wpf0jfp5bh" class="animable"></path><g id="elqz8deendc0s"><path d="M138.5,356.06c-2.42-1.4-4.6-1.48-6.16-.51-.32.21-.71.38-1.13.63l-.33.21-.06,0,0,0a4.35,4.35,0,0,0-.41.34l-.09.09a4,4,0,0,0-.34.37l-.12.15c-.09.13-.18.26-.26.4l-.13.23c-.06.12-.13.25-.19.39a3.05,3.05,0,0,0-.13.32l-.13.39c0,.14-.08.28-.11.42l-.09.37c0,.18-.05.37-.08.56s0,.21,0,.31c0,.31,0,.62,0,.95,0,5.45,3.83,12.08,8.54,14.8.3.17.59.32.88.46s.34.13.51.2l.34.14.35.09.48.14.19,0,.62.09h0a4.44,4.44,0,0,0,2.78-.65c.42-.25.78-.43,1.25-.71,1.5-.9,2.43-2.79,2.43-5.47C147.05,365.42,143.22,358.79,138.5,356.06Zm-2.44,16.42c-1.46-1.14-3.52-4.6-4.32-6.52a16.74,16.74,0,0,0,1.49.91c2.22,1.15,2.17-.41,3.07.67s.73,3.73,0,5.1A1.53,1.53,0,0,1,136.06,372.48Zm4.34-10.12a2.57,2.57,0,0,0-.37.16l-1.31.75a1.79,1.79,0,0,0-.66.65,11.92,11.92,0,0,1-2.27-6.38c1.91.65,5.1,3.31,5.59,4.34a1.86,1.86,0,0,1,.09.24A5.45,5.45,0,0,0,140.4,362.36Zm-6.49-1.13c.72,2.58,1.8,3,1.87,3.82-1.68-.27-4.41-1.9-4.6-3.52a6.53,6.53,0,0,1,1.48-4.34C133.37,357.5,133.32,359.12,133.91,361.23Zm4.83,13.55c-.89-.82.1-1.61.55-3.29a4.52,4.52,0,0,0,0-2.45c1.75,1.38,4.38,5,3.7,6.08l-.09.11C141.41,375.61,139.36,375.35,138.74,374.78Zm4.17-5.62c-1.86-2.48-2.59-1.63-3-3a1.69,1.69,0,0,1,.6-1.78,2.18,2.18,0,0,1,2.69.9,16.25,16.25,0,0,1,1.46,6.37C144.17,371,143.62,370.1,142.91,369.16Z" style="opacity: 0.2; transform-origin: 137.918px 366.262px;" class="animable" id="elslvp9jml6b"></path></g><path d="M137.18,356.81c-4.71-2.72-8.54-.51-8.54,4.93s3.83,12.08,8.54,14.8,8.54.52,8.54-4.93S141.9,359.53,137.18,356.81Zm-2.11.58c1.69,0,5.75,3.32,6.31,4.49s-.93.74-2.29,1.22c-1.73.61-.91,2.29-1.93,1.87C135.68,364.35,133.38,357.36,135.07,357.39Zm-2.55-.26c.87.15.77,1.85,1.39,4.1.79,2.86,2,3,1.86,4.1-.26,1.57-5.64-.77-5.9-3.07S131.65,357,132.52,357.13Zm2.23,16.09c-1.84-1.44-4.65-6.58-4.67-7.66s1.4.4,3.15,1.31c2.22,1.15,2.17-.41,3.07.67C137.63,369.12,136.6,374.66,134.75,373.22Zm8.22,1.9c-.89,1.4-4.65,1.21-5.54.4s.1-1.61.56-3.3c.58-2.13-.69-3.28,0-3.68C139.11,368,143.85,373.72,143,375.12Zm-1.36-5.22c-1.86-2.48-2.6-1.63-3-2.95-.67-1.94,3.29-3.92,4.59-1.62s1.78,7.34,1.25,7.92S143.07,371.85,141.61,369.9Z" style="fill: rgb(224, 224, 224); transform-origin: 137.18px 366.676px;" id="el6dixg5cfpfl" class="animable"></path><path d="M137.18,369.69c1.45.84,2.62.16,2.62-1.51a5.76,5.76,0,0,0-2.62-4.52c-1.44-.84-2.61-.16-2.61,1.51A5.78,5.78,0,0,0,137.18,369.69Z" style="fill: rgb(69, 90, 100); transform-origin: 137.185px 366.675px;" id="elzj1kwfifgl" class="animable"></path><path d="M128.55,380.47a.71.71,0,0,1-.31-.08.7.7,0,0,1-.32-.94l5.78-11.7,3-1.75a.7.7,0,1,1,.7,1.22l-2.66,1.54-5.59,11.32A.71.71,0,0,1,128.55,380.47Z" style="fill: #29EEC7; transform-origin: 132.8px 373.188px;" id="ely3ge8fiztw" class="animable"></path><g id="eluvdm3l7s0i"><g style="opacity: 0.3; transform-origin: 132.8px 373.188px;" class="animable" id="elwobchzl7we"><path d="M128.55,380.47a.71.71,0,0,1-.31-.08.7.7,0,0,1-.32-.94l5.78-11.7,3-1.75a.7.7,0,1,1,.7,1.22l-2.66,1.54-5.59,11.32A.71.71,0,0,1,128.55,380.47Z" id="elblquq6wrte" class="animable" style="transform-origin: 132.8px 373.188px;"></path></g></g><path d="M134,383l-8-4.67a1,1,0,0,0-1,0l-7.71,4.45a1,1,0,0,0-.5.86v.5a1,1,0,0,0,.5.85l8,4.69a1,1,0,0,0,1,0l7.7-4.46a1,1,0,0,0,.49-.86v-.5A1,1,0,0,0,134,383Z" style="fill: #29EEC7; transform-origin: 125.635px 384.005px;" id="elwyzij2e0yy" class="animable"></path><g id="el5nuja7s3d1w"><path d="M134,383l-8-4.67a1,1,0,0,0-1,0l-7.71,4.45a1,1,0,0,0-.5.86v.5a1,1,0,0,0,.5.85l8,4.69a1,1,0,0,0,1,0l7.7-4.46a1,1,0,0,0,.49-.86v-.5A1,1,0,0,0,134,383Z" style="opacity: 0.2; transform-origin: 125.635px 384.005px;" class="animable" id="eluact70q3lf"></path></g><path d="M125.29,388.1a.94.94,0,0,0,.92,0l8.1-4.69A1,1,0,0,0,134,383l-4-2.37-4-2.3a1,1,0,0,0-1,0l-.93.54-6.78,3.91a1,1,0,0,0-.36.36Z" style="fill: #29EEC7; transform-origin: 125.62px 383.208px;" id="elrlmktg9gvq" class="animable"></path><path d="M149.55,368.76c-.05-6.29-.84-10.38-8.56-16.79-6.72-5.58-39.06-19.94-39.06-19.94l-1.34.83,28.35,24.53,1.34-.83a4.38,4.38,0,0,1,1.13-1.74c1.24-.47,3.05-.46,5.66.82,6.38,3.15,8.38,7.95,9.15,12.86l2,1.09Z" style="fill: #29EEC7; transform-origin: 125.07px 350.81px;" id="elh5wq4rn9u2" class="animable"></path><g id="elfxd9o5g8b1t"><path d="M149.55,368.76c-.05-6.29-.84-10.38-8.56-16.79-6.72-5.58-39.06-19.94-39.06-19.94l-1.34.83,28.35,24.53,1.34-.83a4.38,4.38,0,0,1,1.13-1.74c1.24-.47,3.05-.46,5.66.82,6.38,3.15,8.38,7.95,9.15,12.86l2,1.09Z" style="opacity: 0.3; transform-origin: 125.07px 350.81px;" class="animable" id="eljl7sdiyf9y"></path></g><path d="M128.94,357.39l-28.35-24.53s32.34,14.36,39.06,19.94c7.72,6.41,8.51,10.5,8.56,16.79l-2-1.09c-.77-4.91-2.77-9.71-9.15-12.86C130.43,352.37,128.94,357.39,128.94,357.39Z" style="fill: #29EEC7; transform-origin: 124.4px 351.225px;" id="elvwcrd4sb5eb" class="animable"></path><path d="M149.75,291.76a59,59,0,0,0-6.53-7.81S131.4,268,118.28,275.61a8.78,8.78,0,0,0-4.55,6.46,11,11,0,0,0-.09,2.85,6.88,6.88,0,0,0,1.62,4c1.73,2.38,6.61,4.34,12.46,5.82l1.26.3c2.09.48,4.19.89,6.29,1.31s4.16.85,6.21,1.4c.84.22,1.68.47,2.5.77.33.12.67.26,1,.41a3.3,3.3,0,0,0,1.26.55,4.6,4.6,0,0,0,.91-.09,4.28,4.28,0,0,0,.8-.21,3,3,0,0,0,.65-.38,4.79,4.79,0,0,0,1.6-2.28A5.58,5.58,0,0,0,149.75,291.76Z" style="fill: rgb(135, 76, 76); transform-origin: 132.061px 286.516px;" id="elu15p7q514ol" class="animable"></path><path d="M118.28,275.61c-4,2.3-6.15,6.52-3,10.84,1.73,2.38,6.61,4.34,12.46,5.82s15.84,2.81,18.32,4.83,6-1.61,3.71-5.34a59,59,0,0,0-6.53-7.81S131.4,268,118.28,275.61Z" style="fill: rgb(158, 103, 103); transform-origin: 132.14px 285.615px;" id="elrws8ws79n8" class="animable"></path><path d="M133.72,365.71c-.33-1.4-.33-2.34.9-6.77s9.08-31.6,9.08-31.6-18.86-7.57-20.19-3.13c-1.72,5.73-1.66,13.51-1.31,17.94a67,67,0,0,1-.3,16.81c-2.07,4.05-1.59,5.06,1.09,7.41S133.72,365.71,133.72,365.71Z" style="fill: rgb(158, 103, 103); transform-origin: 132.158px 345.04px;" id="elaht8j0yu538" class="animable"></path><path d="M144.24,386a3.79,3.79,0,0,1-2.33,3.35,13.91,13.91,0,0,1-11.32-.07c-5.37-2.37-6.56-5-7.29-7.49s-.77-6.21-2-7.93-2.65-2.71-3.26-4.08a8.08,8.08,0,0,1-.37-3.51Z" style="fill: rgb(55, 71, 79); transform-origin: 130.928px 378.394px;" id="elwxfogqx4km" class="animable"></path><path d="M121.9,359s-.32,1-.36,1.23a3.62,3.62,0,0,0,1.95,4.31c.85.47,2.29-.53,3.59-.9a7.7,7.7,0,0,1,7.07,1.28c.76,4.27,1.19,6.83,3.09,10a39,39,0,0,0,3.95,4.54c1.45,1.23,4,3.18,3.36,5.52a4.63,4.63,0,0,1-2.22,2.58,13.24,13.24,0,0,1-11,.47,11.25,11.25,0,0,1-7.22-7.68c-.94-2.75-1-5.88-2.45-7.72s-3.07-2.29-4-5.05a4.46,4.46,0,0,1,.9-3.83C120.31,361.08,121.08,358.24,121.9,359Z" style="fill: #29EEC7; transform-origin: 131.099px 373.94px;" id="elpq7xasljgur" class="animable"></path><g id="eli8dqfa5qmq"><path d="M121.9,359s-.32,1-.36,1.23a3.62,3.62,0,0,0,1.95,4.31c.85.47,2.29-.53,3.59-.9a7.7,7.7,0,0,1,7.07,1.28c.76,4.27,1.19,6.83,3.09,10a39,39,0,0,0,3.95,4.54c1.45,1.23,4,3.18,3.36,5.52a4.63,4.63,0,0,1-2.22,2.58,13.24,13.24,0,0,1-11,.47,11.25,11.25,0,0,1-7.22-7.68c-.94-2.75-1-5.88-2.45-7.72s-3.07-2.29-4-5.05a4.46,4.46,0,0,1,.9-3.83C120.31,361.08,121.08,358.24,121.9,359Z" style="opacity: 0.4; transform-origin: 131.099px 373.94px;" class="animable" id="elle24dbvfdx"></path></g><path d="M129.62,381.81a9.54,9.54,0,0,1,10.92-3h0a6.7,6.7,0,0,1,.88.63c1.46,1.23,4,3.06,3.34,5.4a4.09,4.09,0,0,1-2.26,2.72,13.82,13.82,0,0,1-11.2.43,13.53,13.53,0,0,1-3-1.54l-.11-.08a.27.27,0,0,1-.08-.07A7.87,7.87,0,0,1,129.62,381.81Z" style="fill: rgb(240, 240, 240); transform-origin: 136.489px 383.573px;" id="el3l41kakx4qk" class="animable"></path><path d="M145.92,306.48c-1.41-12.31-3.31-23.74-3.31-23.74s8.73-4.84,8.7-21.26l-45.55.32c-.44,7.15-.67,10,0,15.55.59,5,1.43,8.2,6.24,18,3.91,8,7.92,15.35,9.93,19.6,1.25,2.66,1,6.79.38,11-1,6.35-1.22,9.2-1.22,9.2s3,3.39,10.74,4.71,10-.95,10-.95,1.58-7.55,2.94-13.41A50.65,50.65,0,0,0,145.92,306.48Z" style="fill: rgb(55, 71, 79); transform-origin: 128.325px 300.876px;" id="elljbspw8sf1" class="animable"></path><path d="M175.66,215.07a18.44,18.44,0,0,0-.16-2.78c-.5-4.45,1-8.78,2.73-12.81.3-.69.61-1.38.91-2.06a9,9,0,0,0,.42-1c.1-.33.19-.6.63-.6a1.25,1.25,0,0,1,.81.38,3.68,3.68,0,0,1,1,2.79,17.19,17.19,0,0,1-.5,3c-.15.77.66.39,1,.15,1.73-1.16,3.11-4.17,4-6a26.93,26.93,0,0,1,1.66-3.67,4.06,4.06,0,0,1,1.87-1.61c.52-.21,1.08-.22,1.27.46a2.78,2.78,0,0,1-.09,1.31,3,3,0,0,0,.22,2.49,7,7,0,0,1,1,1.52,21.58,21.58,0,0,1,.23,2.3,17,17,0,0,0,.85,1.77,5.57,5.57,0,0,1-.14,2.36,18.9,18.9,0,0,1-1.43,4.64A35.74,35.74,0,0,1,188,214a9.68,9.68,0,0,0-1.95,3.59,21,21,0,0,0-.33,4.12c0,1.73,0,3.46,0,5.18-.16,18.68-1.53,22.68-3.42,25.13-1.34,1.73-4.5,4.61-11.17,0-7.38-5.13-23-22.92-23-22.92L148,209.45s4.25-.24,8.85,4.88c4.85,5.39,16.08,18.79,16.08,18.79S175.37,217.55,175.66,215.07Z" style="fill: rgb(158, 103, 103); transform-origin: 170.788px 222.622px;" id="el6wdfzrcmd3h" class="animable"></path><path d="M143.93,207.23c4.58.85,5.63.93,8.6,2.72,2.72,1.65,4.71,4,7.86,7.73S169.7,229,169.7,229s-1.29,9.92-9.42,13.53l-15.15-15.17Z" style="fill: rgb(69, 90, 100); transform-origin: 156.815px 224.88px;" id="elwvmsegbjeor" class="animable"></path><path d="M172.89,233.12a35.45,35.45,0,0,0-.84,10.37s-2.29-6.5-.62-12.11Z" style="fill: rgb(135, 76, 76); transform-origin: 171.855px 237.435px;" id="elaegjve0zsn" class="animable"></path><path d="M181.76,205.06a13.47,13.47,0,0,1-.27,7.46,7.82,7.82,0,0,0,1.39-3.8C182.93,206.6,182.43,205.76,181.76,205.06Z" style="fill: rgb(135, 76, 76); transform-origin: 182.187px 208.79px;" id="elavbrlkf2os" class="animable"></path><path d="M138.26,205.86l-14-.44c-2,.69-9.24,3.81-13.18,5.79-3.54,3.19-4,10.36-5.34,25.07-1.32,14.55-.76,34-.76,34s6.36,6.38,28.46,3.26c15.55-2.19,19.07-11.16,19.07-11.16l-2.18-7.8s2.15-24.2,1.53-33.53c-.46-7-1.88-9.81-4.51-12C145.43,207.5,142.12,206.42,138.26,205.86Z" style="fill: #29EEC7; transform-origin: 128.686px 239.91px;" id="elv2z7etu0xr" class="animable"></path><path d="M145.42,185.78a5.29,5.29,0,0,0,2.06-2.16,7.83,7.83,0,0,0,.63-3.09,16.19,16.19,0,0,0-1-6.19,10.75,10.75,0,0,0-1.54-2.68,14.35,14.35,0,0,0-10.26-4.25A19.16,19.16,0,0,0,122,172.28a16.14,16.14,0,0,0-2.19,2.48,11.66,11.66,0,0,0-1.38,2.36,11.44,11.44,0,0,0-.73,5.47,32.13,32.13,0,0,0,2.14,8.36c.73,2,1.4,4.06,2.26,6l1.56,3.51,0-6.64c2.37-.09,4.22.74,6.49,0a42,42,0,0,0,6.25-2.54,59.87,59.87,0,0,0,6.11-3.54C143.49,187.13,144.45,186.45,145.42,185.78Z" style="fill: rgb(224, 224, 224); transform-origin: 132.875px 183.931px;" id="eld27kh9hs34r" class="animable"></path><g id="el392b8fbb3q3"><path d="M145.42,185.78a5.29,5.29,0,0,0,2.06-2.16,7.83,7.83,0,0,0,.63-3.09,16.19,16.19,0,0,0-1-6.19,10.75,10.75,0,0,0-1.54-2.68,14.35,14.35,0,0,0-10.26-4.25A19.16,19.16,0,0,0,122,172.28a16.14,16.14,0,0,0-2.19,2.48,11.66,11.66,0,0,0-1.38,2.36,11.44,11.44,0,0,0-.73,5.47,32.13,32.13,0,0,0,2.14,8.36c.73,2,1.4,4.06,2.26,6l1.56,3.51,0-6.64c2.37-.09,4.22.74,6.49,0a42,42,0,0,0,6.25-2.54,59.87,59.87,0,0,0,6.11-3.54C143.49,187.13,144.45,186.45,145.42,185.78Z" style="opacity: 0.1; transform-origin: 132.875px 183.931px;" class="animable" id="elfandlkyoli6"></path></g><path d="M131,172.47c-.11,2-2.61,6.34-5.6,8.68a20.57,20.57,0,0,1-.21,6.83,3.84,3.84,0,0,1-.59,1.34,1.66,1.66,0,0,1-1.24.69c-.66,0-.91-.4-1.09-.92a15.26,15.26,0,0,0-.9-2,3.85,3.85,0,0,0-.54-.76c-1-1-3.86-2.27-5.4.81s.79,7.66,3.14,8.45c4.06,1.37,5.1-1.38,5.1-1.38l.12,13.61c3.58,8.36,19.72,8,15.35.41l.06-3.86a12,12,0,0,0,3.78-.15c2.16-.29,4-2.2,5.09-5.41A49.79,49.79,0,0,0,149.68,180c-.57-3.88-2.91-7.39-4.15-8.3,0,.83-.9,3-4.45,3.36C136.65,175.49,134.07,174,131,172.47Z" style="fill: rgb(158, 103, 103); transform-origin: 132.445px 192.853px;" id="el7736t7rd06g" class="animable"></path><path d="M135.49,181.39l-3.18,1.72a1.89,1.89,0,0,1,.76-2.51A1.77,1.77,0,0,1,135.49,181.39Z" style="fill: rgb(224, 224, 224); transform-origin: 133.796px 181.752px;" id="elters10aw91" class="animable"></path><path d="M148.63,182.24l-3.22-1.46a1.71,1.71,0,0,1,2.29-.87A1.8,1.8,0,0,1,148.63,182.24Z" style="fill: rgb(224, 224, 224); transform-origin: 147.088px 180.995px;" id="elm2195ufsqoi" class="animable"></path><path d="M139.17,204.39c-3.78-.55-8.56-1.48-10.64-2.73-1.52-.91-3.86-3-4.22-3.91a9.4,9.4,0,0,0,2.8,4.75c4,3.36,12,3.91,12,3.91Z" style="fill: rgb(135, 76, 76); transform-origin: 131.74px 202.08px;" id="elqouv3lqwp9" class="animable"></path><path d="M125.54,183.71c.16,1.73,1.95,9.59,4.08,10.44,3.4,1.36,6-.6,10.19-1,2.76-.25,4.52.86,6.39,1.59.36.14.77.28,1.17.4a1.42,1.42,0,0,0,1.81-1.12c.29-1.75.74-7.84.76-10.51h0s.38,10.13-.17,13.11-1.12,5.37-3.68,7-7.65,2-13.55.21-8.42-5.57-8.88-7.76c-1.39-6.64-.79-6.92-2.86-9.71C119.89,185.12,125.54,183.71,125.54,183.71Z" style="fill: rgb(224, 224, 224); transform-origin: 135.384px 194.263px;" id="el1fgy2iqr30n" class="animable"></path><g id="elrenbpaoug7"><path d="M125.54,183.71c.16,1.73,1.95,9.59,4.08,10.44,3.4,1.36,6-.6,10.19-1,2.76-.25,4.52.86,6.39,1.59.36.14.77.28,1.17.4a1.42,1.42,0,0,0,1.81-1.12c.29-1.75.74-7.84.76-10.51h0s.38,10.13-.17,13.11-1.12,5.37-3.68,7-7.65,2-13.55.21-8.42-5.57-8.88-7.76c-1.39-6.64-.79-6.92-2.86-9.71C119.89,185.12,125.54,183.71,125.54,183.71Z" style="opacity: 0.1; transform-origin: 135.384px 194.263px;" class="animable" id="eltt5fa9vtf8"></path></g><path d="M137.31,186.25a1.24,1.24,0,1,1-1.21-1.32A1.27,1.27,0,0,1,137.31,186.25Z" style="fill: rgb(38, 50, 56); transform-origin: 136.072px 186.17px;" id="el1lzmpurdtpy" class="animable"></path><path d="M135.5,195.45l3.8,1.43a2,2,0,0,1-2.58,1.25A2.12,2.12,0,0,1,135.5,195.45Z" style="fill: rgb(135, 76, 76); transform-origin: 137.339px 196.85px;" id="elqie7yhagp6k" class="animable"></path><path d="M147.57,185.74a1.25,1.25,0,1,1-1.22-1.33A1.28,1.28,0,0,1,147.57,185.74Z" style="fill: rgb(38, 50, 56); transform-origin: 146.322px 185.66px;" id="eln3mxfxqjvsl" class="animable"></path><path d="M140.53,192.06l5.11-.91c-1-3-2.93-6.2-4-6.86s-1.09.22-1.11,1.66Z" style="fill: rgb(135, 76, 76); transform-origin: 143.085px 188.064px;" id="el52j8go5m425" class="animable"></path><path d="M203.43,391.49a1,1,0,0,1-1-.63L196,376s0-.09-.05-.15l-10.15-38.31a1,1,0,0,1,.75-1.28,1,1,0,0,1,1.28.74L198,375.27l6.4,14.75a1.05,1.05,0,0,1-.54,1.39A1.25,1.25,0,0,1,203.43,391.49Z" style="fill: #29EEC7; transform-origin: 195.122px 363.853px;" id="elxr13xkv0tnq" class="animable"></path><g id="el0s2nedzeht9"><path d="M203.43,391.49a1,1,0,0,1-1-.63L196,376s0-.09-.05-.15l-10.15-38.31a1,1,0,0,1,.75-1.28,1,1,0,0,1,1.28.74L198,375.27l6.4,14.75a1.05,1.05,0,0,1-.54,1.39A1.25,1.25,0,0,1,203.43,391.49Z" style="opacity: 0.5; transform-origin: 195.122px 363.853px;" class="animable" id="elp9mbml0gl7"></path></g><path d="M206.89,353.73,205,352.61a27.71,27.71,0,0,0-13.27-4.13h-.35a19.86,19.86,0,0,0-2.07.12c-6.31.67-10.3,2.56-14,7.32l-.21.26a4.2,4.2,0,0,0-.37.49,3.53,3.53,0,0,0-.24.34c-.11.14-.2.28-.29.42s-.35.55-.51.83c-.06.1-.11.21-.18.31s-.14.28-.22.42l0,.05a22.69,22.69,0,0,0-2.74,10.85v.91c0,.41,0,.84,0,1.27v2.23c0,19.37,13.59,42.91,30.36,52.59l1.94,1.12A27.71,27.71,0,0,0,216,432.14h.27c.27,0,.53,0,.79,0h.25c.22,0,.45,0,.67-.06l.34,0,.18,0c6.52-.71,10.66-2.82,14.33-7.85.16-.21.32-.43.47-.65l0-.09c.18-.25.32-.54.51-.79,2-2.53,3.36-8.14,3.36-14.08v-2.23C237.25,387,223.66,363.41,206.89,353.73Zm-5.11,70.63C186,415.22,173.13,393,173.13,374.74s12.83-25.69,28.65-16.55,28.65,31.36,28.65,49.62S217.6,433.5,201.78,424.36Z" style="fill: rgb(69, 90, 100); transform-origin: 203.86px 390.31px;" id="elj2fb4dbidzm" class="animable"></path><path d="M202.75,355.66l-1.94-1.12c-8.29-4.79-15.81-5.29-21.29-2.22a4.64,4.64,0,0,0-.42.25l-.11.06-.49.32a5.09,5.09,0,0,0-.47.34,9.11,9.11,0,0,0-.92.72c-.15.13-.3.26-.44.4a9.65,9.65,0,0,0-.84.85c-.14.14-.27.3-.4.45s-.26.31-.38.47a4.2,4.2,0,0,0-.37.49,3.53,3.53,0,0,0-.24.34c-.11.14-.2.28-.29.42s-.35.55-.51.83c-.06.1-.11.21-.18.31s-.14.28-.22.42l-.21.42c-.25.51-.49,1-.7,1.6-.12.3-.23.59-.33.89,0,0,0,0,0,0-.19.54-.35,1.11-.51,1.69l-.24,1c-.08.37-.16.75-.23,1.13q0,.25-.09.54c-.06.3-.1.62-.14.94s-.09.7-.13,1.06a1.1,1.1,0,0,1,0,.18c0,.3-.05.61-.07.93l0,.38c0,.34,0,.69,0,1.05s0,.84,0,1.27v2.23c0,19.37,13.59,42.91,30.36,52.59l1.94,1.12c4.87,2.81,9.47,4.14,13.55,4.14.27,0,.53,0,.79,0h.25c.22,0,.45,0,.67-.06l.34,0c.22,0,.45,0,.66-.09l.59-.1c.2,0,.39-.07.57-.12.36-.09.72-.18,1.07-.3l.44-.14c.17,0,.33-.11.48-.17l.41-.17c.29-.12.58-.24.86-.39l.42-.22.11-.06a.83.83,0,0,0,.16-.09l.27-.15c5.39-3.22,8.72-10,8.72-19.55v-2.23C233.11,388.88,219.51,365.34,202.75,355.66Zm-1,68.7C186,415.22,173.13,393,173.13,374.74s12.83-25.69,28.65-16.55,28.65,31.36,28.65,49.62S217.6,433.5,201.78,424.36Z" style="fill: rgb(55, 71, 79); transform-origin: 201.92px 391.272px;" id="el84x1pmfwjzp" class="animable"></path><path d="M223.09,419.67c-4.53,5.39-12.38,6.16-21.31,1-14.07-8.12-25.47-27.87-25.47-44.11,0-7.26,2.28-12.59,6.06-15.54-2.63,3.11-4.16,7.76-4.16,13.71,0,16.23,11.4,36,25.47,44.11C211.45,423.34,218.42,423.33,223.09,419.67Z" style="fill: #29EEC7; transform-origin: 199.7px 392.587px;" id="el7eu55hbsrhf" class="animable"></path><g id="elpysajmip68"><path d="M223.09,419.67c-4.53,5.39-12.38,6.16-21.31,1-14.07-8.12-25.47-27.87-25.47-44.11,0-7.26,2.28-12.59,6.06-15.54-2.63,3.11-4.16,7.76-4.16,13.71,0,16.23,11.4,36,25.47,44.11C211.45,423.34,218.42,423.33,223.09,419.67Z" style="opacity: 0.2; transform-origin: 199.7px 392.587px;" class="animable" id="el65i6ft573jr"></path></g><path d="M201.78,358.19c-15.82-9.13-28.65-1.73-28.65,16.54s12.83,40.49,28.65,49.63,28.65,1.73,28.65-16.54S217.6,367.33,201.78,358.19Zm0,62.49c-14.07-8.12-25.47-27.87-25.47-44.11s11.4-22.82,25.47-14.7,25.47,27.87,25.47,44.11S215.84,428.8,201.78,420.68Z" style="fill: #29EEC7; transform-origin: 201.78px 391.277px;" id="elplm1e45b4cr" class="animable"></path><path d="M226.39,397.9c-.06-.29-.13-.58-.19-.86l-22.18-6,19.82-1.77-.3-.76-20,1.79,16.31-9.41-.4-.68-16.3,9.41,11.51-16.37-.52-.63-11.38,16.19,5.89-22-.66-.59-5.79,21.61V362.11l-.39-.24-.39-.22V387l-5.7-27.82c-.28-.09-.56-.16-.84-.23l5.61,27.44-10.86-28-.82.07,10.79,27.81-15.28-26.47c-.24.12-.47.24-.69.37l15.29,26.49-18.78-23.36q-.24.31-.48.66l18.93,23.54-21.18-18.78c-.08.28-.16.55-.23.84l21.48,19.05-22.3-12.88c0,.28,0,.54,0,.82v.08l22.7,13.1-22-5.89c0,.28.11.57.17.85l22.35,6-20.1,1.8c.09.25.2.51.29.76l20.32-1.81L183.42,401c.13.23.25.46.39.69l16.63-9.61-11.79,16.77.51.64,11.67-16.6-6.05,22.58.65.59,6-22.22v26.56l.39.24.39.22V394.77L208,423.39c.28.09.56.15.84.22l-5.77-28.24,11.15,28.74.81-.07L204,395.5l15.62,27.06c.22-.13.45-.26.67-.41l-15.61-27,19.07,23.73c.16-.22.31-.44.46-.67L205,394.27l21.35,18.94.21-.86-21.63-19.18,22.31,12.88s0-.05,0-.07c0-.28,0-.56,0-.84l-22.68-13.09Z" style="fill: rgb(235, 235, 235); transform-origin: 201.8px 391.25px;" id="elk89t8k7xt59" class="animable"></path><path d="M203,383.46c-1.75-1-3.33-1.08-4.45-.37-.24.14-.52.27-.82.45-.08,0-.16.1-.24.15l0,0h0l-.31.25-.06.06a3.22,3.22,0,0,0-.24.28l-.09.11c-.06.09-.13.18-.19.28l-.09.17a2.44,2.44,0,0,0-.14.28l-.09.23-.1.28c0,.1-.05.21-.08.31l-.06.27c0,.13,0,.26-.06.4l0,.23c0,.22,0,.44,0,.68a13.66,13.66,0,0,0,6.18,10.7,4.76,4.76,0,0,0,.63.33l.37.15.25.1.25.07.35.1.14,0,.44.06h0a3.19,3.19,0,0,0,2-.47c.3-.18.57-.31.91-.51,1.08-.65,1.75-2,1.75-3.95A13.66,13.66,0,0,0,203,383.46Zm-1.76,11.87a15.37,15.37,0,0,1-3.13-4.72,11.85,11.85,0,0,0,1.08.66c1.61.83,1.57-.3,2.22.49s.53,2.69,0,3.68A.93.93,0,0,1,201.23,395.33Zm3.13-7.32a1,1,0,0,0-.26.12l-.95.54a1.11,1.11,0,0,0-.47.47,8.56,8.56,0,0,1-1.65-4.62,10.32,10.32,0,0,1,4,3.14l.07.18A3.77,3.77,0,0,0,204.36,388Zm-4.69-.82c.52,1.87,1.3,2.16,1.35,2.76-1.21-.19-3.19-1.37-3.32-2.54a4.69,4.69,0,0,1,1.07-3.14C199.28,384.5,199.25,385.66,199.67,387.19Zm3.5,9.8c-.65-.59.07-1.16.4-2.38a3.33,3.33,0,0,0,0-1.77c1.26,1,3.16,3.62,2.67,4.4l-.06.07A4.09,4.09,0,0,1,203.17,397Zm3-4.06c-1.34-1.8-1.87-1.18-2.2-2.14a1.24,1.24,0,0,1,.44-1.29,1.58,1.58,0,0,1,1.94.66,11.76,11.76,0,0,1,1.06,4.6C207.09,394.29,206.69,393.6,206.18,392.93Z" style="fill: rgb(224, 224, 224); transform-origin: 202.615px 390.834px;" id="ellr65b6izi19" class="animable"></path><g id="elp7je3rw0hah"><path d="M203,383.46c-1.75-1-3.33-1.08-4.45-.37-.24.14-.52.27-.82.45-.08,0-.16.1-.24.15l0,0h0l-.31.25-.06.06a3.22,3.22,0,0,0-.24.28l-.09.11c-.06.09-.13.18-.19.28l-.09.17a2.44,2.44,0,0,0-.14.28l-.09.23-.1.28c0,.1-.05.21-.08.31l-.06.27c0,.13,0,.26-.06.4l0,.23c0,.22,0,.44,0,.68a13.66,13.66,0,0,0,6.18,10.7,4.76,4.76,0,0,0,.63.33l.37.15.25.1.25.07.35.1.14,0,.44.06h0a3.19,3.19,0,0,0,2-.47c.3-.18.57-.31.91-.51,1.08-.65,1.75-2,1.75-3.95A13.66,13.66,0,0,0,203,383.46Zm-1.76,11.87a15.37,15.37,0,0,1-3.13-4.72,11.85,11.85,0,0,0,1.08.66c1.61.83,1.57-.3,2.22.49s.53,2.69,0,3.68A.93.93,0,0,1,201.23,395.33Zm3.13-7.32a1,1,0,0,0-.26.12l-.95.54a1.11,1.11,0,0,0-.47.47,8.56,8.56,0,0,1-1.65-4.62,10.32,10.32,0,0,1,4,3.14l.07.18A3.77,3.77,0,0,0,204.36,388Zm-4.69-.82c.52,1.87,1.3,2.16,1.35,2.76-1.21-.19-3.19-1.37-3.32-2.54a4.69,4.69,0,0,1,1.07-3.14C199.28,384.5,199.25,385.66,199.67,387.19Zm3.5,9.8c-.65-.59.07-1.16.4-2.38a3.33,3.33,0,0,0,0-1.77c1.26,1,3.16,3.62,2.67,4.4l-.06.07A4.09,4.09,0,0,1,203.17,397Zm3-4.06c-1.34-1.8-1.87-1.18-2.2-2.14a1.24,1.24,0,0,1,.44-1.29,1.58,1.58,0,0,1,1.94.66,11.76,11.76,0,0,1,1.06,4.6C207.09,394.29,206.69,393.6,206.18,392.93Z" style="opacity: 0.2; transform-origin: 202.615px 390.834px;" class="animable" id="elufahgv65pt"></path></g><path d="M202,384c-3.41-2-6.18-.37-6.18,3.57a13.66,13.66,0,0,0,6.18,10.7c3.41,2,6.17.37,6.17-3.56A13.68,13.68,0,0,0,202,384Zm-1.53.42c1.22,0,4.16,2.4,4.56,3.25s-.67.54-1.65.89c-1.25.44-.66,1.65-1.4,1.34C201,389.45,199.29,384.39,200.51,384.41Zm-1.84-.18c.63.1.55,1.34,1,3,.58,2.07,1.47,2.2,1.35,3-.19,1.13-4.08-.56-4.27-2.22S198,384.12,198.67,384.23Zm1.61,11.63a14.32,14.32,0,0,1-3.38-5.54c0-.78,1,.29,2.28.95,1.61.83,1.57-.3,2.22.49C202.36,392.9,201.62,396.91,200.28,395.86Zm5.94,1.38c-.64,1-3.36.87-4,.28s.07-1.16.4-2.38c.42-1.54-.5-2.38,0-2.67C203.43,392.05,206.86,396.22,206.22,397.24Zm-1-3.78c-1.34-1.79-1.88-1.18-2.2-2.14-.48-1.4,2.38-2.83,3.32-1.16s1.29,5.31.91,5.72S206.3,394.87,205.24,393.46Z" style="fill: rgb(224, 224, 224); transform-origin: 201.995px 391.135px;" id="elh5qt1gf1gon" class="animable"></path><path d="M201.78,394.65c1.61.93,2.92.17,2.92-1.69a6.47,6.47,0,0,0-2.92-5.06c-1.61-.93-2.92-.17-2.92,1.69A6.47,6.47,0,0,0,201.78,394.65Z" style="fill: rgb(69, 90, 100); transform-origin: 201.78px 391.275px;" id="elv5fs962jtab" class="animable"></path><path d="M217.7,359.75l-1.35,1.17a50.48,50.48,0,0,0-9.46-7.18L205,352.61a27.71,27.71,0,0,0-13.27-4.13h0l-.35,0a15.66,15.66,0,0,0-2.07.12c-6.31.66-10.3,2.55-14,7.31l-.21.26c-.14.17-.26.32-.38.49l-.23.34c-.11.14-.2.28-.29.42s-.35.54-.51.83c-.06.1-.11.21-.18.31s-.14.28-.22.42,0,0,0,.05a22.61,22.61,0,0,0-2.75,10.85v.91c0,.42,0,.84,0,1.27v2.24a55.82,55.82,0,0,0,4.08,19.9l-1.13.81a72.53,72.53,0,0,1-6.23-24.27c-.71-12.79,6-22.94,19.39-25.43S217.7,359.75,217.7,359.75Z" style="fill: rgb(224, 224, 224); transform-origin: 192.454px 370.035px;" id="el73fwax6zqou" class="animable"></path><g id="ell932fvrgt9"><path d="M217.7,359.75l-1.35,1.17a50.48,50.48,0,0,0-9.46-7.18L205,352.61a27.71,27.71,0,0,0-13.27-4.13h0l-.35,0a15.66,15.66,0,0,0-2.07.12c-6.31.66-10.3,2.55-14,7.31l-.21.26c-.14.17-.26.32-.38.49l-.23.34c-.11.14-.2.28-.29.42s-.35.54-.51.83c-.06.1-.11.21-.18.31s-.14.28-.22.42,0,0,0,.05a22.61,22.61,0,0,0-2.75,10.85v.91c0,.42,0,.84,0,1.27v2.24a55.82,55.82,0,0,0,4.08,19.9l-1.13.81a72.53,72.53,0,0,1-6.23-24.27c-.71-12.79,6-22.94,19.39-25.43S217.7,359.75,217.7,359.75Z" style="opacity: 0.3; transform-origin: 192.454px 370.035px;" class="animable" id="el0vjmpbf3n2p"></path></g><path d="M220.15,360a11.42,11.42,0,0,1-3.88,2.92l-.11.06a12.75,12.75,0,0,1-1.7.67l-.1,0A64.3,64.3,0,0,0,202,353.52c-18.42-11.17-33.46-5.57-33.54,18.18a65.19,65.19,0,0,0,5,23.32,5.09,5.09,0,0,1-2.38-1,61.82,61.82,0,0,1-4.41-21.79v-2.48c0-.47,0-.95,0-1.41v-1a25.18,25.18,0,0,1,3-12.06l0-.05.25-.47.2-.34c.18-.32.37-.62.56-.92s.21-.32.33-.47.17-.25.26-.37a5.23,5.23,0,0,1,.41-.55l.24-.3.19-.22c4.05-5.12,8.45-7.17,15.36-7.9a21.68,21.68,0,0,1,2.3-.14h.39c4.46.07,9.46,1.54,14.75,4.6l2.15,1.24A57.87,57.87,0,0,1,220.15,360Z" style="fill: rgb(250, 250, 250); transform-origin: 193.41px 369.285px;" id="eli63ur6uvndc" class="animable"></path><path d="M216.27,362.89h0l-.11.05a5.62,5.62,0,0,1-1.7.67l-.1,0A64.3,64.3,0,0,0,202,353.52c-18.42-11.17-33.46-5.57-33.54,18.18a65.19,65.19,0,0,0,5,23.32,5.09,5.09,0,0,1-2.38-1,61.82,61.82,0,0,1-4.41-21.79v-2.48c0-.47,0-.95,0-1.41s0-.79.05-1.17c0-.14,0-.28,0-.42l.09-1c0-.06,0-.13,0-.19,0-.4.09-.8.14-1.18s.09-.71.16-1.05.07-.4.1-.6c.07-.42.16-.84.26-1.25s.17-.71.26-1.06q.25-1,.57-1.89l0,0c.1-.33.23-.66.36-1,.23-.61.5-1.2.78-1.77l.2-.42,0-.05.25-.47.2-.34c.18-.32.37-.62.56-.92s.21-.32.33-.47.17-.25.26-.37a5.23,5.23,0,0,1,.41-.55l.24-.3.19-.22a5.47,5.47,0,0,1,.45-.51,10.43,10.43,0,0,1,.93-.95l.48-.43a12.93,12.93,0,0,1,1-.81c.18-.13.35-.26.53-.37s.36-.23.55-.35l.12-.07c.15-.11.31-.19.46-.28,6.09-3.4,14.45-2.85,23.66,2.47l2.15,1.24A59.16,59.16,0,0,1,216.27,362.89Z" style="fill: rgb(224, 224, 224); transform-origin: 191.47px 370.383px;" id="el2kd8tistiw8" class="animable"></path><path d="M201.78,392.53a1,1,0,0,1-.79-.36l-10.3-11.71a1,1,0,0,1-.23-.42l-10.15-38.31a1.05,1.05,0,0,1,.75-1.29,1,1,0,0,1,1.28.74l10.09,38.08,10.14,11.52a1.05,1.05,0,0,1-.09,1.48A1,1,0,0,1,201.78,392.53Z" style="fill: #29EEC7; transform-origin: 191.553px 366.462px;" id="elpsez4c4tm3c" class="animable"></path><g id="el1ixomz1zk8m"><path d="M201.78,392.53a1,1,0,0,1-.79-.36l-10.3-11.71a1,1,0,0,1-.23-.42l-10.15-38.31a1.05,1.05,0,0,1,.75-1.29,1,1,0,0,1,1.28.74l10.09,38.08,10.14,11.52a1.05,1.05,0,0,1-.09,1.48A1,1,0,0,1,201.78,392.53Z" style="opacity: 0.3; transform-origin: 191.553px 366.462px;" class="animable" id="eldcezvspsf65"></path></g><path d="M182.44,339.61l-9.74-56.84c-.06-.77,2.74-1,2.8-.21l9.73,56.85C185.29,340.18,182.49,340.35,182.44,339.61Z" style="fill: #29EEC7; transform-origin: 178.965px 311.077px;" id="elkixmcsgltih" class="animable"></path><g id="el4ny4n12p97h"><path d="M182.44,339.61l-9.74-56.84c-.06-.77,2.74-1,2.8-.21l9.73,56.85C185.29,340.18,182.49,340.35,182.44,339.61Z" style="opacity: 0.3; transform-origin: 178.965px 311.077px;" class="animable" id="elzrs84cipcap"></path></g><path d="M181.13,332l.76,4.42c0,1.25-2.39,3.14-1.61,5.62s1.8,6.32,1.8,6.32a1.49,1.49,0,0,0,2-.81l-1-3.82a2.88,2.88,0,0,1,1-3l.42-.32a1.47,1.47,0,0,1,2.3.8l.71,2.52a18.39,18.39,0,0,1,2.09-.14s-1.2-4.88-1.81-6.88c-.48-1.58-3.14-.72-3.47-2.65l-.49-2.87C183.9,332.22,181.7,332.88,181.13,332Z" style="fill: rgb(55, 71, 79); transform-origin: 184.862px 339.841px;" id="elhld2yry7v3o" class="animable"></path><g id="elg2mz8xvk6o8"><path d="M175.5,282.56c-.06-.77-2.86-.56-2.8.21l1.74,10.16a7,7,0,0,0,3,.91Z" style="opacity: 0.15; transform-origin: 175.07px 287.958px;" class="animable" id="elljo227kcss"></path></g><path d="M204.13,266.7l-2.24-3.86,9.44-5.45h0a1.1,1.1,0,0,1,1.12.1,3.51,3.51,0,0,1,1.58,2.73,1.11,1.11,0,0,1-.44,1h0Z" style="fill: rgb(69, 90, 100); transform-origin: 207.963px 261.991px;" id="eles6mse7dapb" class="animable"></path><path d="M204.59,265.68c0,1-.71,1.41-1.58.91a3.48,3.48,0,0,1-1.58-2.73c0-1,.71-1.41,1.58-.91A3.48,3.48,0,0,1,204.59,265.68Z" style="fill: rgb(55, 71, 79); transform-origin: 203.01px 264.77px;" id="elyxff72dsqyj" class="animable"></path><path d="M203.69,265.15a.66.66,0,0,1-.12.4l-.24.13L191,272.81a4.66,4.66,0,0,0-2.33,4,6.76,6.76,0,0,1-3.37,5.84l-8.54,4.94-1.06-1.83,8.55-4.93a4.65,4.65,0,0,0,2.32-4,6.81,6.81,0,0,1,3.37-5.85l12.39-7.14.13-.08a.57.57,0,0,1,.47.08A1.71,1.71,0,0,1,203.69,265.15Z" style="fill: rgb(250, 250, 250); transform-origin: 189.695px 275.665px;" id="el72qbvirflr" class="animable"></path><path d="M183.05,285.05a2.25,2.25,0,0,0-1.31-1.75l-5.51-3.18-5.69,3.29v3.28l5.51,3.18a6.51,6.51,0,0,0,5.89.11,1.86,1.86,0,0,0,1.11-1.64S183.07,285.65,183.05,285.05Z" style="fill: rgb(55, 71, 79); transform-origin: 176.799px 285.375px;" id="el7wgtehykj8e" class="animable"></path><path d="M176.23,280.12l5.51,3.18c1.68,1,1.76,2.49.19,3.39a6.54,6.54,0,0,1-5.89-.1l-5.5-3.18Z" style="fill: rgb(69, 90, 100); transform-origin: 176.798px 283.731px;" id="elg6p5fwwb54i" class="animable"></path><path d="M175.43,288a.62.62,0,0,1-.15.43l-.15.09h0l-6.89,4a2.87,2.87,0,0,1-3,.26c-.64-.37-1.41-1.25-1.41-3.33,0-1.06-.26-1.45-.36-1.51s-.41,0-.91.27l-19.94,11.51-1.05-1.82,19.93-11.51a2.91,2.91,0,0,1,3-.27c.64.37,1.42,1.26,1.42,3.33,0,1.07.25,1.45.35,1.52s.41,0,.91-.28l6.94-4h0l.09-.05a.57.57,0,0,1,.48.07A1.67,1.67,0,0,1,175.43,288Z" style="fill: rgb(250, 250, 250); transform-origin: 158.5px 292.772px;" id="eltqi7phj4qx" class="animable"></path><path d="M140.69,302.23l-2.23-3.86,9.44-5.45h0a1.12,1.12,0,0,1,1.13.1,3.48,3.48,0,0,1,1.57,2.73,1.11,1.11,0,0,1-.44,1h0Z" style="fill: rgb(69, 90, 100); transform-origin: 144.533px 297.521px;" id="elx0y8s5n0fc7" class="animable"></path><path d="M141.15,301.21c0,1-.71,1.41-1.58.91a3.47,3.47,0,0,1-1.57-2.73c0-1,.7-1.41,1.57-.91A3.48,3.48,0,0,1,141.15,301.21Z" style="fill: rgb(38, 50, 56); transform-origin: 139.575px 300.3px;" id="elqd13brkjror" class="animable"></path><path d="M186.13,291.21c-1.15-.62-7-1.19-10,.54s2.06,7.48,4.4,8.83Z" style="fill: #29EEC7; transform-origin: 180.668px 295.589px;" id="elxtsv0ridvzm" class="animable"></path><g id="elnwnxfn6myai"><path d="M186.13,291.21c-1.15-.62-7-1.19-10,.54s2.06,7.48,4.4,8.83Z" style="fill: rgb(255, 255, 255); opacity: 0.5; transform-origin: 180.668px 295.589px;" class="animable" id="el65xfuxz5lmw"></path></g><path d="M183.42,291.49c2.13-1.23,3.86-.23,3.86,2.23a8.53,8.53,0,0,1-3.86,6.68c-2.13,1.23-3.86.24-3.86-2.22A8.53,8.53,0,0,1,183.42,291.49Z" style="fill: #29EEC7; transform-origin: 183.42px 295.946px;" id="el3j57pce2peb" class="animable"></path><g id="elsgt4vyjsow"><path d="M183.42,291.49c2.13-1.23,3.86-.23,3.86,2.23a8.53,8.53,0,0,1-3.86,6.68c-2.13,1.23-3.86.24-3.86-2.22A8.53,8.53,0,0,1,183.42,291.49Z" style="fill: rgb(255, 255, 255); opacity: 0.8; transform-origin: 183.42px 295.946px;" class="animable" id="elban56fevf8q"></path></g><path d="M183.42,294c1-.55,1.73-.1,1.73,1a3.8,3.8,0,0,1-1.73,3c-.95.55-1.72.11-1.72-1A3.82,3.82,0,0,1,183.42,294Z" style="fill: #29EEC7; transform-origin: 183.425px 296.001px;" id="el2uyq28364ui" class="animable"></path><path d="M112,211.6c-3.94,1.28-7.79,5.35-8,11.92s2.87,23.4,5.25,33.12c2.07,8.42,3.35,10.53,6.47,14.06s19.76,18.44,20.76,20.21.4,5.46,2.17,7.36l1.29-.75a3.63,3.63,0,0,1,2.2,3.88l-1.25.72s2,1.9,2.94,1.75a8.15,8.15,0,0,0,2.28-.7c.69-.31,1.49-.16,2.17-.49a13.14,13.14,0,0,0,1.4-1,3.51,3.51,0,0,1,1.43-.28c1.7-.29,2-2.14,2.28-3.58a12.26,12.26,0,0,0,.2-4.86c-.46-1.72-4.2-5.37-4.71-5.93-3.78-4.1-6.5-7.24-8.87-10.33-4.93-6.41-13.26-17.18-13.26-17.18L121,224.34S119.37,214.44,112,211.6Z" style="fill: rgb(158, 103, 103); transform-origin: 128.867px 257.739px;" id="elb1vtb6yv6m" class="animable"></path><path d="M113.08,210.25c-3.67,1.43-7.34,4-9.09,8.09s-.42,12.51.61,17.94,1.91,10.64,1.91,10.64,1.87,1.82,8.53.7,9.56-4.93,9.56-4.93-2.77-18.42-4.28-23.43S113.08,210.25,113.08,210.25Z" style="fill: rgb(69, 90, 100); transform-origin: 113.87px 229.117px;" id="el05cgopk371ca" class="animable"></path></g></g><defs>     <filter id="active" height="200%">         <feMorphology in="SourceAlpha" result="DILATED" operator="dilate" radius="2"></feMorphology>                <feFlood flood-color="#32DFEC" flood-opacity="1" result="PINK"></feFlood>        <feComposite in="PINK" in2="DILATED" operator="in" result="OUTLINE"></feComposite>        <feMerge>            <feMergeNode in="OUTLINE"></feMergeNode>            <feMergeNode in="SourceGraphic"></feMergeNode>        </feMerge>    </filter>    <filter id="hover" height="200%">        <feMorphology in="SourceAlpha" result="DILATED" operator="dilate" radius="2"></feMorphology>                <feFlood flood-color="#ff0000" flood-opacity="0.5" result="PINK"></feFlood>        <feComposite in="PINK" in2="DILATED" operator="in" result="OUTLINE"></feComposite>        <feMerge>            <feMergeNode in="OUTLINE"></feMergeNode>            <feMergeNode in="SourceGraphic"></feMergeNode>        </feMerge>            <feColorMatrix type="matrix" values="0   0   0   0   0                0   1   0   0   0                0   0   0   0   0                0   0   0   1   0 "></feColorMatrix>    </filter></defs></svg>